<?xml version="1.0" standalone="no"?>
<!DOCTYPE svg PUBLIC "-//W3C//DTD SVG 20010904//EN"
 "http://www.w3.org/TR/2001/REC-SVG-20010904/DTD/svg10.dtd">
<svg version="1.0" xmlns="http://www.w3.org/2000/svg"
 width="1440.000000pt" height="1800.000000pt" viewBox="0 0 1440.000000 1800.000000"
 preserveAspectRatio="xMidYMid meet">
<metadata>
Created by potrace 1.16, written by Peter Selinger 2001-2019
</metadata>
<g transform="translate(0.000000,1800.000000) scale(0.100000,-0.100000)"
fill="#000000" stroke="none">
<path d="M0 15835 c0 -1437 3 -2165 10 -2165 6 0 10 9 10 20 0 22 15 27 26 8
11 -18 23 21 17 55 -3 15 -2 27 1 27 13 0 36 -28 36 -44 0 -9 8 -16 19 -16 35
0 120 23 115 31 -6 10 36 49 53 49 7 0 13 10 14 23 0 12 3 17 6 10 3 -8 10 -9
21 -3 9 5 39 18 65 31 27 12 51 29 55 38 13 35 32 43 102 43 79 0 94 -6 87
-34 -4 -15 -3 -17 9 -7 7 6 21 8 30 5 9 -3 20 -3 26 0 14 9 -11 24 -39 24 -14
0 -23 6 -23 16 0 10 6 14 15 10 8 -3 15 -1 15 4 0 6 -7 10 -15 10 -8 0 -15 7
-15 16 0 10 7 14 23 12 12 -2 22 -10 22 -18 0 -8 6 -22 14 -32 21 -24 61 -4
61 31 0 25 3 26 40 23 29 -3 47 1 60 13 11 10 21 14 21 9 1 -5 4 6 8 25 7 40
31 55 31 19 0 -12 4 -29 9 -37 6 -10 11 -5 17 20 l8 34 6 -30 6 -30 25 28 c15
15 35 27 45 27 13 0 19 8 20 23 4 56 16 162 20 166 2 2 4 -23 4 -56 0 -33 3
-63 7 -66 11 -12 33 14 33 39 0 27 8 29 44 13 30 -14 56 6 56 44 0 22 5 25 50
31 42 6 50 10 50 28 0 15 5 19 20 15 25 -6 46 19 41 51 -2 20 1 24 14 18 9 -3
23 -6 31 -6 8 0 14 -10 14 -24 0 -13 7 -26 15 -30 9 -3 15 0 15 9 0 8 -4 15
-10 15 -5 0 -10 5 -10 10 0 6 11 10 24 10 14 0 31 7 40 15 8 8 24 15 35 15 25
0 27 23 6 64 -29 54 -16 84 29 67 20 -8 24 -7 19 4 -3 8 0 15 6 15 6 0 10 3 9
8 -4 12 30 90 43 97 6 4 15 2 20 -6 6 -11 12 -10 28 5 19 17 21 17 21 3 0 -13
9 -17 38 -17 l37 0 -23 18 -23 18 26 12 c14 7 32 12 39 12 22 0 40 59 37 118
-1 17 -7 22 -28 22 -16 0 -35 5 -43 10 -16 10 -12 11 42 14 10 1 18 5 18 9 0
4 0 12 0 17 0 6 -6 10 -14 10 -9 0 -12 7 -9 18 5 22 81 30 95 10 6 -10 10 -7
14 10 6 22 24 31 24 12 0 -5 7 -10 15 -10 8 0 15 6 15 14 0 7 9 25 20 39 18
23 19 27 5 40 -22 23 -19 27 19 27 22 0 36 -5 38 -15 2 -10 8 -12 17 -5 13 7
13 11 0 26 -12 15 -12 16 8 10 29 -9 63 13 63 41 0 20 2 22 20 11 27 -17 36
-3 16 26 -14 22 -14 27 -1 40 8 8 15 19 15 24 0 6 6 13 12 16 11 5 11 7 1 12
-7 3 -13 21 -13 40 0 19 -4 34 -10 34 -5 0 -10 16 -10 35 0 24 -5 35 -15 35
-9 0 -15 9 -15 23 l0 22 18 -21 c18 -24 62 -41 62 -26 0 5 9 12 20 15 20 5 29
37 10 37 -5 0 -10 5 -10 10 0 6 11 8 25 4 19 -5 25 -2 25 9 0 9 5 19 11 22 7
5 8 -5 4 -29 l-7 -36 41 0 c22 0 41 5 41 10 0 6 -7 10 -15 10 -17 0 -20 46 -5
70 8 12 10 11 10 -7 0 -20 5 -23 45 -23 38 0 45 -3 45 -20 0 -11 5 -20 10 -20
6 0 10 18 10 40 0 22 5 40 10 40 7 0 7 6 0 20 -9 16 -6 22 15 36 19 12 23 19
13 25 -9 6 -8 12 5 27 13 14 14 21 4 31 -9 11 -9 14 0 18 7 3 13 13 13 23 0
10 9 20 20 23 16 4 20 12 18 38 -2 25 1 34 15 37 12 2 20 -3 24 -17 3 -12 9
-21 15 -21 5 0 4 8 -2 19 -14 27 -13 31 6 24 13 -5 15 -2 9 15 -5 18 -2 22 14
22 12 0 21 6 21 14 0 8 11 17 25 20 13 3 29 15 35 26 9 18 7 20 -17 21 -24 1
-22 3 12 11 22 6 42 14 45 18 3 3 13 9 23 13 9 3 17 13 17 22 0 11 10 15 37
15 34 0 35 1 20 18 -19 21 -23 62 -6 62 7 0 23 12 37 27 16 18 27 23 30 15 7
-21 22 -13 22 12 0 27 24 56 46 56 8 0 14 7 14 15 0 8 7 15 15 15 8 0 15 7 15
15 0 8 13 28 30 45 17 18 27 36 24 45 -4 10 0 15 15 15 12 0 21 5 21 10 0 6
-4 10 -10 10 -24 0 -7 21 21 27 17 3 26 9 19 13 -8 5 -7 10 3 19 12 9 16 8 22
-6 7 -17 8 -17 15 2 5 13 3 26 -6 35 -7 9 -11 26 -7 38 6 25 23 30 23 7 0 -8
5 -15 10 -15 6 0 10 12 10 28 1 15 7 38 16 52 14 23 14 23 9 3 -6 -22 -3 -23
42 -23 26 0 55 5 63 10 12 8 9 10 -12 10 -44 0 -31 29 20 44 18 6 22 3 22 -13
0 -11 4 -22 10 -26 5 -3 10 28 12 77 2 61 6 82 16 80 15 -3 62 42 62 58 0 6
-5 8 -11 5 -6 -4 -5 2 3 14 11 17 10 22 -4 33 -15 12 -15 15 -3 32 15 19 15
19 15 -2 0 -13 6 -22 15 -22 8 0 15 9 15 20 0 11 -5 20 -11 20 -6 0 3 17 19
38 16 20 27 43 25 50 -3 6 0 12 6 12 6 0 11 14 11 30 0 21 5 30 16 30 15 0 16
9 10 61 -3 34 -6 70 -6 80 0 15 -8 19 -33 19 -38 0 -67 25 -67 58 0 15 -6 22
-20 22 -17 0 -20 7 -20 40 0 34 -3 40 -22 40 -21 0 -21 0 -2 15 18 13 17 14
-17 15 -43 0 -51 7 -38 31 8 16 6 19 -11 19 -17 0 -20 7 -21 43 -1 23 -3 34
-6 25 -6 -22 -26 -23 -47 -3 -8 8 -26 15 -40 15 -18 0 -24 4 -20 15 4 10 -3
18 -21 25 -22 9 -25 13 -15 25 10 12 9 16 -6 22 -11 4 -32 20 -47 36 -22 24
-25 32 -15 39 9 7 6 8 -10 5 -19 -5 -22 -2 -20 16 3 19 -3 22 -34 25 -23 2
-38 8 -38 16 0 8 -7 19 -15 26 -8 7 -14 20 -13 29 2 10 -4 16 -17 16 -14 0
-21 8 -25 29 -5 31 -9 33 -80 62 -25 10 -49 24 -53 31 -4 7 -18 13 -31 13 -12
0 -33 11 -46 25 l-23 25 -1374 0 -1373 0 0 -2165z"/>
<path d="M3193 17993 c9 -2 17 -8 17 -13 0 -5 6 -7 14 -4 8 3 17 1 21 -5 3 -6
-2 -11 -12 -11 -13 0 -10 -4 11 -15 15 -8 29 -15 30 -15 6 0 -1 36 -8 48 -4 6
-2 12 3 12 6 0 21 -16 33 -35 23 -34 38 -45 38 -25 0 6 -4 10 -10 10 -5 0 -10
7 -10 15 0 21 16 19 34 -6 8 -12 19 -18 25 -14 6 3 11 2 11 -2 0 -15 64 -33
108 -31 23 1 42 5 42 10 0 13 30 9 46 -7 16 -15 94 -21 94 -7 0 4 28 4 63 0
34 -5 88 -11 120 -14 31 -4 57 -11 57 -17 0 -6 13 2 30 18 16 15 27 32 24 36
-3 5 2 6 10 3 9 -3 16 -10 16 -15 0 -5 9 -9 20 -9 13 0 20 7 20 20 0 11 7 20
15 20 9 0 25 9 37 20 27 25 41 25 64 3 17 -17 18 -17 11 0 -4 10 -7 23 -7 28
0 6 -193 9 -492 8 -271 -1 -485 -4 -475 -6z"/>
<path d="M6148 12762 c-32 -46 -146 -54 -237 -17 -45 19 -72 24 -99 20 -46 -8
-112 -35 -112 -47 0 -4 -33 -7 -72 -6 -119 3 -187 -36 -261 -148 -32 -47 -32
-47 -97 -51 -36 -3 -80 -4 -97 -4 -18 1 -33 -4 -33 -9 0 -6 3 -10 8 -11 4 0
23 -1 43 -3 40 -3 87 -30 70 -41 -6 -3 -11 -1 -11 4 0 6 -11 11 -24 11 -14 0
-27 4 -30 8 -3 5 -22 9 -42 10 -42 2 -55 9 -35 21 10 7 10 9 -2 14 -14 5 -98
-13 -107 -23 -3 -3 -16 -7 -30 -8 -64 -4 -78 -9 -122 -40 -26 -18 -52 -41 -58
-52 -5 -10 -22 -21 -37 -25 -41 -9 -119 -69 -147 -114 -28 -44 -45 -122 -36
-166 8 -39 -18 -92 -64 -128 -20 -15 -51 -56 -68 -90 -28 -54 -32 -72 -32
-142 -1 -58 4 -88 15 -105 14 -23 29 -124 33 -224 1 -36 -1 -39 -29 -41 -17
-1 -49 -12 -72 -24 -24 -11 -59 -20 -80 -20 -26 1 -58 -10 -103 -34 -63 -33
-189 -60 -191 -40 0 4 -2 25 -4 47 -3 22 2 50 10 67 20 37 19 78 -1 86 -12 4
-14 14 -9 41 8 44 -10 90 -38 94 -12 2 -49 -1 -81 -5 -49 -7 -65 -6 -88 8 -15
9 -33 13 -38 10 -6 -4 -17 -1 -25 5 -8 6 -23 9 -35 5 -15 -5 -22 -1 -29 18 -8
19 -15 23 -35 20 -17 -4 -28 0 -31 9 -4 10 -15 13 -30 11 -19 -4 -24 0 -27 18
-2 17 -9 23 -21 21 -10 -2 -24 1 -31 7 -11 9 -48 14 -205 26 -67 5 -83 -3
-106 -49 -7 -14 -24 -23 -50 -26 -22 -3 -46 -9 -53 -14 -7 -4 -36 -9 -65 -11
-28 -3 -108 -16 -177 -31 -69 -14 -143 -28 -165 -31 -24 -3 -64 -21 -98 -45
-39 -26 -62 -36 -70 -30 -22 17 -162 57 -189 54 -22 -3 -29 2 -34 22 -3 13
-12 27 -19 29 -7 3 -18 26 -26 51 -7 25 -19 46 -26 46 -8 0 -13 13 -13 36 0
20 -9 48 -19 63 -11 15 -21 40 -23 56 -2 22 -8 30 -23 30 -12 0 -27 13 -40 37
-24 44 -75 88 -102 88 -11 0 -28 9 -38 20 -28 30 -86 45 -126 31 -49 -17 -66
-14 -78 17 -13 32 -18 190 -8 247 7 37 5 43 -31 84 l-39 44 -37 -23 c-30 -18
-42 -20 -59 -12 -71 33 -98 41 -138 42 -24 0 -62 0 -83 0 -22 0 -44 4 -50 10
-5 5 -18 10 -28 10 -10 0 -18 4 -18 9 0 12 -114 71 -138 71 -11 0 -25 7 -33
16 -7 8 -26 21 -43 28 -35 15 -56 9 -124 -37 -39 -26 -50 -28 -125 -27 -45 1
-91 1 -101 1 -35 0 -78 -24 -87 -48 -7 -19 -16 -23 -56 -25 -27 -1 -63 -1 -82
0 -19 1 -42 -4 -50 -11 -11 -10 -51 -14 -129 -15 -63 0 -116 -3 -119 -6 -4 -3
-19 -6 -34 -6 -15 0 -31 -4 -34 -10 -3 -5 -24 -10 -46 -10 l-39 0 0 -6200 0
-6200 7200 0 7200 0 0 403 c0 300 -3 406 -12 415 -9 9 -9 12 0 12 9 0 12 29
12 101 0 59 -4 98 -9 94 -5 -3 -12 -1 -16 5 -3 5 0 10 9 10 12 0 14 18 15 95
0 93 -1 95 -24 95 -13 0 -27 5 -31 11 -4 8 3 9 25 4 28 -6 31 -4 31 19 0 18
-6 26 -22 29 l-23 4 23 2 c27 1 30 35 5 51 -17 11 -17 11 0 6 15 -5 17 4 17
98 l0 102 -142 141 c-79 77 -172 167 -208 200 -36 32 -112 105 -168 161 -59
57 -112 102 -123 102 -10 0 -19 5 -19 11 0 5 6 7 13 4 6 -4 -8 10 -33 32 -24
21 -63 56 -86 78 -23 22 -70 67 -105 101 -96 92 -182 164 -197 164 -7 0 -10 5
-7 11 12 19 32 5 146 -102 63 -58 132 -121 154 -140 89 -75 251 -226 284 -263
20 -22 52 -54 71 -71 64 -56 164 -150 277 -259 62 -61 119 -114 128 -118 13
-8 15 62 15 665 l0 674 -30 34 c-16 19 -30 29 -30 22 0 -6 -13 1 -28 15 -44
42 -75 63 -104 74 -16 5 -28 14 -28 19 0 5 -6 9 -13 9 -8 0 -20 11 -27 25 -7
14 -20 25 -27 25 -8 0 -27 13 -43 30 -16 16 -34 31 -41 32 -10 3 -62 43 -100
80 -9 9 -26 19 -38 23 -12 3 -21 10 -21 15 0 5 -6 7 -13 4 -7 -2 -28 11 -47
31 -19 19 -39 35 -45 35 -6 0 -21 11 -33 25 -11 13 -39 36 -62 51 -22 15 -40
29 -40 31 0 2 6 1 13 -3 9 -6 8 -3 -1 8 -8 9 -19 15 -26 12 -6 -2 -22 9 -34
26 -13 16 -29 30 -37 30 -8 0 -20 9 -27 20 -7 11 -18 20 -25 20 -7 0 -13 5
-13 12 0 6 -3 8 -7 5 -8 -9 -43 13 -108 68 -27 23 -55 40 -61 38 -7 -2 -22 10
-34 27 -12 17 -25 29 -28 26 -3 -3 -23 8 -45 24 -23 17 -46 30 -51 30 -6 0
-27 14 -46 30 -19 16 -39 30 -44 30 -5 0 -19 10 -31 22 -29 31 -86 78 -92 78
-9 0 -136 82 -151 97 -7 7 -17 13 -22 13 -5 0 -17 9 -27 19 -10 11 -46 34 -81
51 -34 17 -62 35 -62 41 0 6 -4 7 -10 4 -5 -3 -10 1 -10 9 0 9 -4 16 -9 16 -5
0 -23 11 -39 25 -17 14 -45 30 -62 37 -38 13 -135 77 -135 88 0 5 -4 12 -9 17
-5 5 -6 3 -2 -5 12 -21 -5 -13 -34 16 -56 55 -103 84 -124 76 -10 -4 -16 -1
-16 9 0 8 -8 21 -17 28 -17 13 -17 13 -3 -5 14 -18 14 -19 -7 -7 -13 6 -23 16
-23 21 0 6 -5 10 -11 10 -5 0 -7 -5 -3 -12 4 -6 -10 -1 -32 12 -21 13 -40 28
-42 32 -2 4 -9 8 -16 8 -7 0 -23 11 -36 25 -13 14 -28 25 -33 25 -5 0 -18 10
-28 22 -11 12 -27 22 -37 23 -9 1 -30 7 -45 14 -16 6 -33 11 -38 11 -6 0 -7 5
-3 12 5 8 2 9 -9 5 -9 -3 -19 -2 -22 3 -4 6 -14 10 -23 10 -22 1 -95 68 -87
80 4 6 -3 10 -14 10 -12 0 -21 5 -21 11 0 5 -4 7 -10 4 -11 -7 -52 13 -62 30
-4 7 -19 16 -33 19 -14 4 -35 16 -46 27 -12 12 -29 19 -40 16 -10 -3 -19 -1
-19 5 0 5 -4 6 -10 3 -5 -3 -7 0 -4 9 3 9 -3 17 -18 21 -13 4 -36 17 -52 28
-16 12 -26 16 -22 9 4 -7 2 -12 -3 -12 -6 0 -11 4 -11 9 0 5 -13 14 -29 21
-16 6 -32 18 -35 26 -3 8 -14 14 -25 14 -11 0 -26 6 -33 13 -7 8 -22 13 -32
11 -22 -3 -69 30 -58 41 4 3 2 6 -3 4 -19 -5 -65 21 -65 36 0 9 -4 14 -10 10
-11 -7 -51 14 -63 33 -5 7 -12 10 -18 7 -5 -4 -9 1 -9 9 0 10 -6 13 -15 10 -8
-4 -15 -1 -15 5 0 6 -11 11 -25 11 -14 0 -25 5 -25 10 0 6 -15 10 -34 10 -18
0 -39 7 -46 15 -7 8 -18 15 -26 15 -7 0 -24 11 -37 24 -23 23 -64 42 -79 38
-5 -1 -8 5 -8 15 0 15 -2 15 -19 -1 -26 -24 -49 -11 -26 14 16 17 15 18 -9 16
-14 -2 -23 0 -21 4 3 5 -2 10 -9 13 -8 3 -16 1 -18 -4 -2 -5 -39 12 -83 39
-44 27 -86 47 -92 45 -6 -2 -14 1 -18 6 -3 6 -16 11 -29 11 -22 0 -43 13 -94
58 -16 14 -32 20 -45 16 -11 -3 -17 -2 -14 2 2 5 -15 21 -40 36 -24 16 -41 22
-38 15 4 -6 0 -4 -9 7 -8 10 -19 15 -25 12 -5 -4 -12 -2 -16 4 -3 5 -26 10
-50 10 -38 0 -44 3 -50 27 -6 27 -7 27 -21 9 -12 -17 -14 -18 -14 -3 0 9 -7
17 -15 17 -8 0 -15 4 -15 10 0 5 -6 7 -14 4 -8 -3 -17 -1 -20 5 -4 6 -14 7
-22 4 -9 -3 -19 -2 -23 3 -10 16 -62 35 -73 28 -7 -5 -8 -2 -3 6 6 10 4 12 -8
7 -9 -3 -19 -2 -22 4 -4 5 -11 6 -17 3 -7 -4 -8 -2 -4 4 4 7 3 12 -3 12 -6 0
-7 8 -4 17 5 12 2 15 -9 11 -8 -4 -32 4 -54 17 -76 46 -246 126 -257 122 -7
-2 -19 1 -27 8 -18 14 -118 55 -135 55 -7 0 -18 7 -25 15 -7 8 -16 12 -22 9
-5 -3 -21 2 -36 12 -15 10 -29 19 -32 19 -3 0 -11 4 -18 8 -7 5 -21 5 -32 2
-12 -4 -20 -2 -20 5 0 7 -8 9 -19 5 -11 -3 -22 -1 -26 5 -4 6 -13 9 -21 6 -8
-3 -14 -2 -14 2 0 7 -43 24 -112 44 -43 12 -45 19 -24 113 12 53 77 296 81
302 0 1 50 9 111 18 178 25 358 67 436 102 24 11 57 24 73 30 71 25 260 107
263 114 2 4 11 5 22 2 10 -3 27 0 37 7 15 10 14 10 -9 5 -16 -3 -28 -3 -28 -1
0 7 106 36 149 42 20 2 37 9 39 14 2 6 15 7 28 4 15 -4 24 -2 24 5 0 6 8 11
18 11 14 0 15 -2 2 -10 -8 -5 -12 -12 -8 -15 3 -3 66 -29 139 -56 139 -51 297
-115 384 -154 75 -33 163 -65 183 -65 14 0 15 2 2 9 -8 6 -18 7 -22 5 -4 -3
-8 0 -8 5 0 6 5 11 11 11 7 0 -9 11 -35 25 -26 14 -57 25 -69 25 -25 0 -49 13
-48 26 1 5 -2 9 -6 9 -5 0 -14 4 -20 8 -8 5 -13 3 -13 -3 0 -7 -13 -1 -28 12
-16 13 -62 34 -103 47 -101 33 -107 35 -164 61 -27 13 -79 31 -114 40 -72 19
-71 21 25 55 l51 18 169 -63 c93 -34 183 -68 199 -76 48 -21 139 -56 156 -59
10 -2 15 5 15 20 0 13 -4 21 -8 19 -5 -3 -6 -10 -3 -15 4 -5 -1 -9 -9 -9 -8 0
-18 5 -21 10 -4 6 -11 8 -16 5 -9 -6 -13 8 -9 34 1 8 -4 12 -13 8 -8 -3 -19
-1 -25 5 -7 7 -17 6 -33 -2 -23 -11 -23 -10 -5 4 20 16 19 16 -2 36 -14 13
-22 16 -22 8 0 -10 -2 -10 -8 -1 -4 6 -14 13 -21 15 -8 2 -22 11 -32 20 -10
10 -25 15 -34 12 -10 -4 -15 0 -15 11 0 12 -6 16 -20 12 -11 -3 -18 -1 -15 3
7 11 -9 21 -38 25 -42 7 -56 11 -63 18 -4 4 0 7 8 7 9 0 21 6 28 14 6 8 20 16
31 18 19 3 19 5 5 23 -13 16 -15 17 -10 3 4 -12 1 -18 -10 -18 -10 0 -13 6
-10 18 4 12 3 13 -3 4 -8 -10 -15 -10 -39 3 -16 8 -34 15 -41 15 -6 0 -11 9
-10 20 1 11 7 20 14 20 7 0 13 2 13 5 0 12 -29 75 -35 75 -3 0 -3 -5 1 -12 5
-8 2 -9 -10 -5 -10 4 -24 7 -32 7 -8 0 -14 5 -14 11 0 6 8 8 19 4 12 -4 21 0
25 11 5 13 1 16 -24 12 -18 -3 -30 0 -30 6 0 18 -33 32 -68 30 -26 -1 -35 4
-49 27 -10 16 -40 40 -70 55 -29 14 -53 30 -53 35 0 12 77 12 85 -1 3 -5 12
-7 20 -4 7 3 25 -2 39 -11 16 -11 26 -13 26 -6 0 6 5 11 10 11 6 0 10 -8 10
-17 0 -13 5 -11 18 10 17 28 49 38 38 12 -3 -8 -1 -15 5 -15 6 0 13 9 16 20 6
24 23 27 23 4 0 -11 6 -14 20 -9 14 5 20 2 20 -9 0 -18 15 -21 25 -6 4 6 17 4
35 -5 16 -8 49 -16 74 -17 26 -2 48 -9 51 -16 3 -7 9 -10 15 -7 5 3 10 2 10
-2 0 -10 78 -33 109 -33 11 0 26 -6 33 -12 24 -23 59 -39 68 -33 6 4 10 1 10
-4 0 -14 45 -14 71 -1 15 9 19 7 19 -6 0 -13 3 -14 15 -4 8 6 18 9 23 6 6 -3
12 3 15 14 4 15 0 20 -14 20 -20 0 -26 15 -9 25 6 3 10 1 10 -4 0 -17 39 -7
53 13 11 15 17 17 35 7 12 -6 22 -9 22 -5 0 3 7 1 15 -6 8 -6 30 -10 50 -7 19
3 35 1 35 -4 0 -17 20 -9 21 9 0 12 3 11 10 -7 6 -15 14 -21 25 -17 9 3 12 2
8 -5 -3 -6 1 -10 12 -9 11 1 21 1 24 0 3 -1 16 -4 30 -6 13 -3 28 -11 32 -18
4 -8 18 -11 33 -8 34 6 60 -15 43 -36 -12 -13 -10 -14 11 -2 21 11 23 10 18
-4 -7 -19 4 -21 21 -4 14 14 71 18 95 6 16 -8 23 5 18 35 -1 4 7 3 17 -2 10
-6 29 -7 40 -4 12 3 28 1 35 -5 6 -5 24 -9 40 -7 28 3 37 -9 15 -19 -16 -7 73
4 127 15 35 7 34 8 -13 3 -30 -3 -51 -1 -48 4 2 4 26 9 53 11 26 1 52 6 58 12
15 15 28 10 15 -6 -10 -13 -9 -15 10 -15 44 0 235 32 246 41 6 5 13 6 16 3 4
-3 23 -1 45 5 21 5 65 15 98 21 84 15 298 75 438 121 65 21 126 39 136 39 9 0
21 4 27 9 8 9 138 60 279 111 95 34 230 51 251 31 14 -14 113 -39 179 -46 33
-3 92 -11 132 -17 63 -10 71 -14 62 -29 -14 -28 -13 -28 56 -28 36 1 65 5 65
10 0 4 8 6 18 4 9 -3 4 1 -13 9 -35 17 -12 21 32 5 24 -8 39 -7 68 5 21 9 51
16 68 16 29 0 30 -1 12 -14 -11 -8 -23 -12 -26 -10 -10 6 -116 -43 -125 -58
-5 -7 -9 -17 -10 -23 0 -5 -2 -15 -2 -22 -2 -8 -26 -11 -79 -9 -43 2 -98 0
-123 -5 -25 -4 -84 -10 -133 -14 -49 -4 -85 -11 -81 -16 3 -5 9 -7 14 -4 5 3
20 -1 32 -8 13 -8 57 -20 98 -26 41 -7 102 -16 136 -21 34 -5 88 -16 120 -25
32 -8 80 -15 106 -15 26 0 48 -4 48 -10 0 -5 -13 -10 -28 -10 -15 0 -33 -5
-38 -10 -8 -8 -69 3 -200 35 -355 85 -329 81 -358 62 -14 -9 -33 -17 -43 -17
-12 0 -14 -3 -6 -8 12 -7 -6 -8 -295 -12 -158 -3 -218 -13 -162 -27 16 -4 18
-8 9 -14 -7 -4 -21 -4 -30 2 -12 6 -19 4 -23 -6 -3 -8 -15 -15 -26 -15 -12 0
-31 -5 -43 -11 -13 -7 -66 -11 -138 -10 -125 2 -198 -15 -183 -41 4 -7 4 -10
-1 -6 -4 4 -14 3 -20 -2 -20 -16 -72 -22 -215 -24 -85 -1 -143 -6 -157 -14
-12 -6 -31 -12 -43 -12 -15 0 -20 -5 -17 -14 6 -14 -10 -13 -38 2 -14 8 -100
2 -103 -8 -2 -4 -13 -6 -25 -4 -21 4 -21 4 -2 -5 12 -5 27 -5 38 1 12 6 22 4
33 -7 11 -11 26 -13 56 -8 28 4 39 3 35 -4 -9 -15 55 -8 81 8 11 7 18 19 15
28 -3 10 -2 12 4 6 8 -10 181 -18 196 -8 4 3 52 6 105 8 53 1 118 6 143 10 31
5 49 4 53 -4 9 -14 213 -15 218 -1 2 6 33 15 68 20 36 5 86 16 110 25 25 9 80
21 124 26 46 6 94 19 116 31 37 22 38 22 126 5 95 -18 255 -23 219 -6 -14 6
-7 7 25 4 25 -3 88 -7 140 -10 52 -3 113 -10 135 -15 47 -11 219 -12 191 -1
-27 11 -8 19 47 22 35 2 48 7 53 21 3 10 9 16 14 13 4 -3 10 2 14 10 3 8 12
15 21 15 8 0 15 5 15 11 0 5 6 7 12 3 19 -12 100 -15 93 -4 -4 6 -13 10 -21
10 -8 0 -14 5 -14 11 0 7 7 8 18 4 33 -14 192 -19 192 -6 0 8 -17 11 -47 10
-83 -3 -133 1 -133 9 0 5 8 9 18 9 9 -1 50 0 90 1 l72 2 0 29 c0 28 -3 30 -47
36 -27 3 -85 10 -129 17 -45 6 -92 8 -105 5 -20 -5 -18 -1 11 21 19 15 48 40
63 56 20 21 37 29 60 28 54 -3 87 8 87 28 0 23 26 44 45 36 13 -5 15 33 15
313 l0 319 -65 7 c-89 9 -93 25 -6 25 67 0 71 1 71 23 0 19 -5 22 -37 21 -20
-1 -39 -6 -41 -13 -2 -6 -14 -11 -27 -11 -31 0 -56 -10 -50 -20 3 -5 -10 -4
-27 2 -86 28 -95 36 -45 40 14 1 24 5 21 9 -2 4 -14 5 -26 1 -13 -3 -19 -1
-15 5 11 17 166 55 208 51 l37 -3 1 127 c2 117 0 128 -16 128 -10 0 -92 -18
-183 -40 -226 -55 -378 -74 -575 -70 -88 1 -178 5 -199 9 l-39 6 71 59 c40 32
72 62 72 66 0 4 46 10 102 13 56 4 104 11 108 17 3 6 58 14 121 19 63 5 127
14 142 20 16 6 45 11 65 11 60 0 294 62 300 79 2 6 10 11 18 11 8 0 14 4 14
10 0 11 -63 1 -68 -11 -2 -5 -20 -11 -40 -15 -20 -4 -42 -13 -49 -20 -16 -16
-53 -7 -46 12 2 7 25 16 49 20 80 12 56 23 -43 20 -106 -3 -268 -27 -303 -46
-12 -7 -19 -18 -16 -26 3 -8 -1 -14 -10 -14 -8 0 -13 -4 -10 -9 3 -4 -37 -11
-89 -14 -55 -3 -108 -12 -126 -21 -18 -9 -42 -16 -54 -16 -11 0 -26 -5 -33
-12 -16 -16 -15 -8 3 36 9 20 19 35 24 32 4 -3 23 3 42 13 19 10 67 24 106 31
40 6 76 17 80 23 4 7 0 8 -12 3 -11 -4 -55 -10 -99 -13 -59 -5 -84 -11 -98
-25 -19 -19 -19 -19 -16 13 3 28 8 34 38 42 57 14 63 31 8 24 -43 -6 -50 -4
-77 23 -18 19 -40 30 -57 30 -37 0 -94 -21 -94 -35 0 -14 -36 -33 -69 -37 -14
-2 -26 -9 -27 -16 -1 -7 0 -8 3 -2 6 13 93 13 93 0 0 -5 -8 -10 -18 -10 -10 0
-22 -4 -28 -8 -5 -5 -30 -16 -55 -26 -52 -19 -84 -48 -76 -69 3 -8 -7 -21 -24
-31 -30 -18 -42 -53 -13 -42 8 3 13 2 10 -3 -3 -5 -30 -14 -58 -21 -84 -18
-128 -41 -145 -74 -9 -17 -29 -48 -46 -68 -17 -22 -26 -41 -22 -49 5 -7 4 -10
-3 -5 -10 6 -35 -50 -31 -70 4 -23 -3 -34 -19 -34 -11 0 -24 -11 -30 -25 -16
-35 -15 -38 11 -31 12 4 60 11 106 16 101 13 118 21 138 68 11 27 17 32 24 21
36 -57 -55 -119 -176 -119 -19 0 -36 -4 -39 -8 -3 -5 -22 -9 -42 -10 -20 -1
-41 -6 -48 -11 -6 -5 -29 -13 -51 -17 -22 -4 -43 -12 -47 -18 -5 -7 -8 -7 -8
2 0 8 -7 11 -17 8 -10 -3 -36 -7 -58 -11 -22 -3 -43 -12 -48 -20 -10 -19 -31
-19 -47 0 -7 8 -17 15 -22 15 -6 0 -5 -7 2 -15 10 -13 9 -15 -9 -15 -12 0 -31
-11 -43 -25 -21 -25 -45 -35 -32 -14 4 8 -1 9 -17 3 -13 -4 -39 -7 -57 -6 -20
1 -31 -2 -27 -8 4 -6 -24 -8 -74 -6 -54 3 -82 0 -85 -8 -3 -8 -7 -7 -14 2 -13
19 -16 19 -35 0 -14 -14 -23 -14 -54 -5 -21 6 -42 17 -46 24 -4 7 -20 12 -35
12 -23 -2 -24 -2 -5 -6 18 -3 20 -7 10 -18 -8 -9 -16 -10 -24 -3 -7 6 -20 8
-28 4 -9 -3 -25 0 -36 7 -17 10 -22 9 -30 -5 -6 -12 -22 -18 -44 -18 -19 0
-36 -4 -39 -9 -7 -10 -112 -31 -146 -27 -14 1 -35 -4 -47 -12 -17 -11 -25 -11
-41 -1 -16 10 -23 10 -35 0 -12 -9 -16 -9 -21 1 -5 10 -7 10 -12 1 -3 -7 -17
-13 -30 -13 -16 0 -24 -6 -25 -17 0 -16 -1 -15 -8 2 -7 18 -8 18 -18 1 -7 -14
-18 -17 -37 -14 -15 3 -31 0 -37 -8 -8 -10 -8 -14 0 -14 6 0 11 -8 11 -17 0
-12 -3 -14 -8 -7 -4 7 -24 10 -44 9 -21 -2 -38 1 -38 6 0 5 -4 9 -10 9 -16 0
-12 -30 5 -36 8 -4 15 -10 15 -15 0 -6 -9 -5 -21 1 -11 7 -27 9 -35 6 -8 -3
-14 0 -15 7 0 7 -4 3 -9 -8 -5 -11 -9 -14 -9 -7 -1 17 -41 60 -41 44 0 -7 -7
-12 -15 -12 -8 0 -15 -4 -15 -9 0 -5 -10 -7 -22 -3 -14 3 -19 2 -14 -6 9 -16
-7 -15 -22 0 -19 19 -49 19 -57 0 -6 -15 -8 -14 -16 5 -5 15 -14 21 -24 17 -8
-4 -22 -1 -29 5 -9 8 -28 10 -51 5 -26 -5 -40 -3 -45 7 -7 10 -12 10 -23 1
-12 -10 -18 -9 -33 5 -16 17 -17 16 -12 -9 3 -18 0 -29 -9 -32 -21 -9 -30 -7
-15 3 10 6 10 10 -3 21 -13 10 -15 9 -16 -6 0 -15 -2 -14 -10 5 -7 19 -12 22
-21 13 -16 -16 -48 -15 -48 1 0 8 -4 7 -10 -3 -8 -13 -10 -12 -10 4 0 15 -3
16 -15 6 -9 -8 -15 -8 -15 -2 0 16 -81 12 -111 -6 -22 -12 -38 -13 -89 -5 -50
8 -69 7 -92 -5 -27 -13 -31 -12 -43 4 -9 11 -14 14 -15 7 0 -8 -13 -13 -30
-13 -16 0 -30 -4 -30 -9 0 -4 -22 -8 -50 -8 -37 0 -50 4 -53 16 -4 14 -5 14
-6 -1 -1 -11 -7 -15 -21 -11 -11 3 -20 1 -20 -4 0 -6 -31 -9 -75 -7 -45 1 -75
-2 -75 -8 0 -5 -10 -9 -22 -8 -13 1 -25 1 -28 0 -3 -1 -32 -4 -65 -6 -53 -3
-110 -10 -110 -14 0 0 -35 -2 -78 -3 -43 -2 -82 -8 -89 -15 -18 -18 -38 -15
-31 6 6 16 5 16 -13 0 -11 -10 -38 -20 -60 -22 -21 -2 -72 -8 -113 -12 -51 -5
-68 -10 -57 -16 27 -15 18 -27 -14 -18 -32 9 -101 4 -110 -9 -7 -11 -41 -23
-74 -26 -18 -2 -24 0 -15 5 7 5 -10 8 -42 7 -30 0 -61 3 -68 7 -8 5 -30 10
-49 11 -20 1 -38 7 -40 13 -2 6 -10 8 -18 5 -8 -3 -14 -1 -14 5 0 5 -11 7 -25
4 -14 -2 -25 0 -25 5 0 5 -15 10 -32 11 -57 4 -72 8 -76 20 -2 7 -8 12 -13 12
-4 0 -6 -7 -3 -15 5 -11 2 -13 -10 -9 -9 3 -16 10 -16 15 0 16 -44 28 -57 17
-7 -6 -13 -7 -13 -2 0 5 -5 2 -10 -6 -8 -13 -10 -12 -10 4 0 14 -5 17 -22 13
-12 -3 -30 -1 -41 5 -15 7 -18 7 -12 -2 6 -9 3 -9 -13 -1 -11 6 -28 8 -36 5
-12 -5 -16 0 -16 17 0 17 -3 20 -8 11 -9 -14 -88 -7 -97 9 -3 4 -21 5 -40 2
-24 -4 -35 -2 -35 7 0 9 -3 10 -13 1 -18 -14 -29 -3 -17 18 7 14 3 17 -23 19
-22 1 -28 -1 -18 -7 7 -5 10 -14 6 -20 -5 -9 -10 -9 -21 0 -12 9 -13 9 -9 -3
5 -12 0 -14 -22 -11 -15 3 -33 12 -40 20 -12 16 -69 10 -59 -6 3 -4 -10 -3
-29 3 -19 6 -35 14 -35 18 0 5 -5 8 -11 8 -6 0 -8 -9 -4 -22 l7 -23 -23 22
-23 23 37 72 c20 40 35 73 33 75 -11 11 -167 -255 -255 -434 -23 -46 -42 -83
-43 -83 -2 0 -4 15 -4 33 -1 17 1 24 3 14 4 -14 11 -5 29 33 13 29 22 56 19
60 -3 5 2 13 10 18 21 11 10 38 -18 46 -12 3 -18 8 -15 12 4 3 20 2 37 -4 23
-8 31 -7 35 3 3 8 1 17 -4 20 -5 3 -6 13 -3 22 5 13 0 15 -30 11 -33 -4 -36
-2 -31 18 5 19 2 21 -33 21 -21 0 -45 2 -53 4 -11 3 -14 -3 -12 -23 2 -16 -2
-28 -9 -28 -6 0 -9 -7 -6 -14 8 -20 -32 -33 -44 -15 -4 7 -6 16 -3 20 2 4 0
10 -6 14 -5 3 -10 15 -10 26 0 10 -4 19 -10 19 -5 0 -6 -7 -3 -17 4 -11 3 -14
-5 -9 -7 4 -12 13 -12 20 0 18 -48 26 -76 14 -19 -9 -29 -6 -61 20 -21 16 -55
37 -75 45 l-37 16 -43 -40 c-24 -22 -51 -45 -61 -50 -16 -9 -17 -8 -6 13 37
71 63 108 77 108 6 0 12 12 12 26 0 20 -4 25 -16 20 -14 -5 -15 -4 -4 9 11 14
7 22 -26 56 -21 22 -48 45 -59 50 -17 9 -18 8 -5 -3 28 -23 13 -43 -30 -42
-43 2 -63 11 -55 25 3 5 -1 6 -9 3 -9 -3 -17 -9 -17 -13 -7 -33 -4 -54 8 -58
8 -3 12 -14 8 -27 -2 -11 -2 -15 1 -8 11 24 21 11 20 -28 -1 -25 4 -40 11 -40
15 0 36 -37 28 -50 -3 -5 -12 -7 -20 -3 -8 3 -15 1 -15 -4 0 -5 -22 -9 -49 -8
-27 0 -49 4 -48 9 1 5 -11 10 -26 13 -16 2 -26 0 -24 -4 3 -5 -3 -9 -13 -9
-10 0 -18 5 -17 11 1 5 -9 9 -22 7 -22 -2 -54 25 -46 39 7 10 -35 3 -46 -8 -8
-8 -6 -15 10 -25 11 -7 21 -19 21 -26 0 -9 -7 -8 -25 4 -14 9 -25 24 -25 33 0
14 -2 14 -10 1 -5 -8 -10 -10 -11 -5 0 6 -2 20 -5 32 -3 17 0 20 19 16 13 -3
17 -1 11 4 -6 4 -11 33 -11 64 0 44 -5 61 -21 79 -11 12 -25 19 -31 15 -7 -3
-10 -1 -9 5 2 7 -10 17 -27 24 -16 6 -41 19 -55 28 -14 9 -44 21 -67 27 -23 7
-45 16 -48 21 -3 6 -14 10 -24 10 -9 0 -30 13 -45 29 -28 29 -66 47 -66 31 0
-5 6 -11 13 -13 9 -4 9 -6 0 -6 -21 -2 -76 36 -64 43 6 4 11 2 11 -3 0 -6 7
-11 16 -11 14 0 14 2 -1 16 -8 9 -21 14 -29 11 -21 -8 -39 9 -42 39 -3 26 -21
48 -47 57 -6 2 -3 14 7 29 11 17 13 28 7 33 -14 8 9 34 25 28 17 -6 31 18 38
71 6 52 31 100 45 92 5 -3 21 22 36 57 56 127 79 172 87 175 4 2 8 10 8 18 0
8 13 41 30 74 16 32 41 90 55 127 14 37 37 91 50 118 73 156 89 190 91 195 4
18 19 46 28 52 7 5 5 8 -4 8 -9 0 -11 3 -5 8 17 12 33 47 40 86 4 20 12 36 17
36 7 0 7 4 1 13 -22 28 12 117 45 117 12 0 14 -9 9 -52 -4 -31 -13 -58 -23
-65 -9 -6 -13 -16 -9 -22 3 -6 2 -11 -2 -11 -12 0 -14 -38 -2 -45 12 -8 12
-52 -1 -60 -5 -3 -10 -17 -10 -30 0 -13 -4 -27 -10 -30 -5 -3 -10 -15 -10 -27
0 -14 -5 -18 -15 -14 -11 4 -15 -1 -15 -18 0 -12 -19 -49 -42 -82 -41 -60
-118 -204 -118 -223 0 -17 77 -13 94 4 8 8 22 15 30 15 9 0 16 6 16 13 0 8 4
7 10 -3 9 -13 10 -13 10 1 0 20 48 84 63 84 7 0 14 5 15 10 10 28 24 45 34 42
7 -1 17 8 23 21 5 12 13 22 17 22 5 0 8 6 8 14 0 8 12 24 26 35 53 42 114 161
114 222 0 16 5 29 11 29 5 0 7 5 4 10 -3 6 3 10 15 10 27 0 36 26 49 138 6 59
18 106 33 134 21 39 23 57 25 221 2 168 1 179 -18 198 -16 16 -28 19 -55 14
-30 -5 -34 -3 -34 15 0 12 -4 18 -10 15 -19 -11 2 78 27 117 12 21 23 49 23
63 0 15 4 24 9 21 5 -3 11 1 15 9 3 8 1 17 -5 20 -5 4 -7 11 -3 16 3 5 9 7 14
4 5 -3 12 6 16 20 3 14 10 25 15 25 5 0 9 5 9 11 0 5 -3 8 -7 6 -5 -3 -9 6 -9
19 -1 13 2 22 6 19 5 -3 12 0 16 6 4 8 9 7 15 -2 6 -10 9 -4 9 18 0 17 5 35
11 38 6 4 8 14 5 22 -3 8 -1 11 4 8 5 -3 15 7 22 22 7 15 15 30 18 33 19 19
40 74 40 108 0 22 7 55 15 74 8 21 16 84 19 150 3 64 8 129 11 144 7 39 -3 18
-55 -115 -36 -93 -76 -161 -134 -228 -11 -13 -23 -23 -27 -23 -4 0 -6 10 -4
23 3 31 26 77 35 72 4 -3 11 10 14 29 4 18 18 57 32 87 15 30 33 72 40 93 8
22 18 44 23 50 4 6 18 36 29 66 11 30 48 118 82 195 34 77 76 176 93 220 l32
80 5 -45 5 -45 8 44 c5 29 4 48 -4 58 -31 37 -296 142 -411 163 -34 7 -68 16
-74 21 -6 5 -17 30 -25 56 -19 70 -110 143 -208 169 -25 7 -45 17 -44 23 2 6
-22 22 -52 36 -30 15 -57 30 -60 36 -4 5 -15 9 -26 9 -14 0 -19 -7 -19 -30 0
-16 -5 -30 -10 -30 -7 0 -9 13 -5 33 6 32 5 34 -46 57 -46 21 -54 30 -60 59
-14 71 -89 91 -172 47 -50 -27 -98 -26 -75 2 11 13 10 14 -9 4 -26 -15 -63
-16 -63 -2 0 5 -14 7 -32 4 -25 -4 -29 -3 -18 5 8 6 29 10 45 9 17 -1 39 3 50
9 26 14 60 52 53 59 -3 3 -12 -3 -20 -14z m845 -573 c11 -7 32 -23 46 -36 14
-13 49 -36 76 -50 43 -22 47 -27 30 -34 -11 -4 -14 -8 -7 -8 6 -1 12 -7 12
-15 0 -11 34 -25 74 -30 5 -1 18 -13 29 -28 29 -39 34 -125 12 -199 -20 -64
-26 -65 -45 -7 -6 21 -19 44 -29 50 -25 18 -70 107 -121 238 -20 50 -40 80
-56 80 -7 0 -18 8 -24 18 -9 14 -10 13 -4 -8 5 -18 3 -22 -5 -14 -12 11 -24
54 -15 54 3 0 15 -5 27 -11z m-3146 -1071 c13 -12 32 -46 44 -77 18 -48 19
-64 11 -116 -9 -57 -8 -66 30 -170 37 -102 40 -118 41 -220 0 -83 -4 -119 -16
-147 -9 -21 -17 -54 -17 -75 0 -34 -1 -36 -15 -17 -8 10 -15 30 -16 44 l-1 25
-8 -25 c-5 -16 -8 -19 -9 -8 -1 20 -47 76 -55 67 -10 -9 74 -112 129 -159 62
-52 102 -100 152 -183 19 -32 38 -56 41 -53 2 3 -1 12 -7 20 -8 10 -9 16 -1
21 6 3 8 10 5 15 -3 5 7 12 22 15 15 4 39 9 53 12 14 4 54 7 90 9 74 3 218 13
270 19 19 3 92 7 161 11 l127 7 17 -98 c14 -76 17 -129 12 -235 -5 -130 -7
-141 -42 -224 -38 -87 -87 -145 -154 -179 -14 -8 -61 -33 -104 -55 -76 -41
-80 -42 -147 -36 -46 5 -74 3 -83 -5 -8 -6 -26 -12 -42 -13 -15 -2 -30 -8 -32
-15 -3 -7 -10 -13 -17 -13 -6 0 -22 -16 -36 -36 -13 -20 -26 -31 -28 -25 -2 7
4 22 14 34 l19 21 -25 -15 c-14 -9 -37 -24 -52 -33 -15 -10 -32 -15 -39 -11
-6 4 -15 1 -20 -6 -7 -11 -9 -11 -9 2 0 10 17 23 43 33 29 12 38 19 29 25 -11
6 -10 11 3 25 9 9 13 16 10 16 -11 0 -110 -68 -139 -95 -15 -14 -32 -22 -38
-19 -7 5 -9 2 -6 -7 8 -20 -55 -19 -64 1 -5 12 -7 12 -7 -2 -1 -16 -31 -27
-31 -12 0 9 28 34 38 34 18 0 71 34 77 49 9 22 -3 26 -24 7 -24 -22 -44 -12
-35 17 5 15 -10 6 -50 -31 -32 -28 -64 -52 -72 -52 -8 0 -14 -4 -14 -10 0 -5
-6 -10 -14 -10 -7 0 -21 -17 -30 -37 -9 -21 -14 -28 -12 -16 2 13 -2 24 -11
27 -18 7 -35 -2 -28 -15 4 -5 2 -9 -4 -9 -5 0 -15 -16 -22 -35 -14 -37 -28
-47 -25 -18 0 10 -7 18 -19 20 l-20 3 20 -9 c17 -8 18 -10 3 -10 -22 -1 -24
-27 -3 -35 8 -3 15 -11 15 -18 0 -9 -3 -8 -10 2 -8 12 -10 10 -10 -8 0 -14 -4
-21 -11 -17 -6 4 -8 14 -4 23 3 8 1 18 -5 22 -8 5 -6 24 6 66 9 32 17 65 17
72 0 6 3 10 5 7 9 -9 42 28 42 47 0 11 -5 16 -10 13 -6 -4 -8 -11 -5 -16 3 -5
0 -6 -8 -3 -8 3 -19 -2 -26 -10 -7 -8 -19 -12 -27 -9 -9 3 -14 -1 -14 -13 0
-9 -3 -15 -6 -11 -3 3 -19 -9 -34 -27 -21 -24 -27 -39 -23 -56 4 -16 3 -21 -5
-16 -8 5 -12 -2 -12 -22 0 -16 -3 -32 -7 -36 -4 -4 -6 -26 -5 -49 1 -23 -1
-47 -5 -54 -5 -6 -9 21 -10 60 -2 40 2 74 8 77 5 4 12 27 15 51 3 24 9 45 14
47 18 7 -2 30 -21 25 -14 -4 -18 -11 -14 -27 5 -16 4 -18 -4 -6 -9 13 -10 13
-15 0 -7 -22 -15 -87 -9 -72 2 6 9 10 14 7 5 -4 3 -12 -3 -19 -11 -11 -15 -10
-26 3 -7 9 -11 10 -7 4 4 -8 0 -13 -10 -13 -13 0 -16 -6 -11 -24 3 -13 1 -35
-4 -48 -10 -21 -10 -21 -6 7 l5 30 -14 -30 c-7 -16 -11 -43 -8 -60 4 -24 2
-27 -7 -15 -10 13 -11 12 -6 -3 6 -18 -27 -91 -36 -81 -10 9 51 196 84 264 33
65 128 172 198 221 97 69 246 127 395 154 132 24 128 21 109 51 -9 13 -22 24
-29 24 -7 0 -16 7 -19 16 -3 8 -10 13 -14 10 -12 -7 -82 13 -82 23 0 5 12 6
28 3 21 -3 24 -2 15 8 -7 7 -42 13 -87 14 -49 0 -77 5 -80 13 -7 16 0 20 57
28 26 4 54 14 62 21 7 8 18 14 23 14 5 0 12 9 15 21 3 12 10 18 16 14 19 -11
12 5 -26 68 -20 33 -38 71 -39 85 -4 33 -25 57 -35 40 -7 -10 -9 -8 -9 5 0 10
-7 34 -17 55 -9 20 -17 48 -19 62 -5 55 -18 85 -46 109 -24 19 -29 31 -26 56
3 23 0 32 -11 31 -8 -1 -18 10 -21 24 -4 14 -12 24 -18 23 -7 -2 -12 1 -12 6
0 5 -11 12 -24 15 -25 6 -42 52 -22 60 6 2 3 5 -6 5 -14 1 -16 7 -11 32 4 21
1 34 -8 40 -10 6 -8 9 11 10 14 1 34 0 45 -1 11 -1 17 1 13 6 -13 12 30 35 55
29 16 -4 29 -21 42 -56 11 -27 23 -49 28 -49 5 0 6 7 3 15 -16 38 -16 47 -1
21 13 -22 19 -26 26 -15 12 19 11 136 -1 158 -5 10 -12 44 -15 77 -7 71 -22
131 -35 139 -5 3 -14 30 -21 59 -10 46 -9 61 3 93 17 42 12 120 -11 161 -7 13
-31 32 -54 43 l-42 19 35 -5 c19 -3 44 -15 57 -27z m-563 -1004 c10 -26 7 -34
-14 -34 -18 0 -18 -2 -5 -41 8 -23 15 -54 15 -70 0 -21 5 -29 18 -29 10 0 13
3 6 8 -6 4 -14 34 -17 67 -5 53 -4 56 5 22 l10 -38 98 7 97 7 8 -69 c5 -51 22
-102 62 -194 68 -155 70 -160 52 -174 -8 -6 -23 -28 -32 -48 -17 -35 -21 -38
-62 -38 -46 0 -68 -15 -39 -27 10 -4 19 -2 21 4 4 12 43 5 43 -7 0 -4 -7 -10
-15 -14 -8 -3 -15 -12 -15 -19 0 -8 -7 -20 -15 -27 -9 -7 -25 -33 -36 -58 -17
-38 -24 -43 -45 -39 -26 5 -29 0 -14 -23 7 -11 10 -11 10 -2 0 7 4 11 9 8 5
-3 1 -26 -8 -51 -13 -38 -20 -45 -42 -45 -15 0 -30 -7 -33 -16 -5 -13 -1 -14
24 -9 17 4 30 3 30 -2 -1 -24 -24 -35 -91 -44 -90 -13 -128 -30 -49 -23 30 3
70 7 88 9 28 3 32 1 32 -20 0 -19 -4 -23 -17 -18 -13 5 -15 2 -9 -18 9 -30 10
-35 8 -81 -2 -29 -6 -38 -19 -38 -15 0 -16 2 -3 10 14 9 13 10 -17 10 -5 0 -8
-6 -8 -12 0 -9 -24 -15 -75 -18 -52 -3 -66 -7 -47 -11 15 -4 57 -3 93 0 61 7
88 1 64 -14 -6 -4 -8 -10 -5 -14 2 -5 -19 -11 -47 -14 -36 -5 -55 -3 -60 6 -7
11 -12 2 -9 -17 3 -12 -32 -35 -43 -28 -33 20 -94 0 -63 -20 7 -5 -39 -7 -101
-7 -62 1 -115 -1 -118 -4 -14 -14 114 -28 200 -23 179 12 231 18 245 29 12 9
13 9 7 0 -8 -14 3 -17 20 -5 12 8 28 43 26 55 -4 15 26 6 33 -10 13 -29 14
-43 4 -43 -5 0 -9 10 -9 23 0 21 -1 20 -25 -8 -18 -23 -24 -42 -25 -79 0 -58
-8 -58 -12 0 -3 38 -4 39 -46 42 -31 2 -44 -1 -48 -12 -3 -9 -14 -16 -24 -16
-11 0 -22 -4 -25 -10 -10 -16 27 -12 46 6 13 11 25 13 50 7 l33 -9 -48 -18
c-26 -10 -58 -16 -71 -13 -14 2 -22 0 -19 -4 3 -5 16 -9 30 -9 13 0 24 -5 24
-11 0 -8 4 -8 15 1 8 6 19 9 24 6 5 -4 14 1 19 10 8 14 10 9 14 -20 4 -40 2
-46 -26 -62 -29 -16 -32 -34 -4 -29 l23 4 -25 -19 c-28 -21 -70 -23 -70 -3 0
7 7 13 17 13 30 0 7 10 -36 15 -25 3 -49 1 -56 -5 -9 -7 -15 -8 -19 -1 -10 16
32 33 77 30 58 -3 77 0 77 9 0 5 -27 8 -60 6 -65 -3 -81 11 -25 22 19 3 38 10
41 16 3 5 -5 6 -20 2 -22 -5 -27 -2 -36 21 -9 25 -38 31 -33 7 3 -12 -35 -21
-112 -26 -27 -2 -68 -7 -90 -10 -22 -3 -34 -3 -27 0 6 3 12 10 12 15 0 6 -5 7
-12 3 -19 -12 -122 -12 -130 0 -9 13 -19 4 -22 -21 -2 -14 -18 -21 -67 -31
-139 -29 -151 -34 -146 -54 3 -10 1 -18 -4 -18 -5 0 -9 9 -9 20 0 21 -19 28
-21 8 0 -10 -2 -10 -6 0 -4 10 -10 9 -25 -4 -14 -14 -21 -15 -27 -6 -5 8 -28
11 -72 8 -69 -5 -54 2 59 24 34 7 61 14 60 15 -2 2 -32 5 -68 8 -36 4 -56 2
-45 -2 16 -6 12 -9 -20 -14 -22 -4 -55 -10 -74 -13 -24 -5 -32 -3 -27 5 4 6
18 11 31 11 31 0 56 10 50 20 -7 11 51 24 66 15 15 -10 199 5 199 15 0 5 -8
10 -17 12 -18 4 119 19 147 16 8 0 26 0 39 0 40 3 9 25 -36 26 -32 1 -38 4
-35 21 2 12 0 16 -5 8 -5 -6 -20 -9 -36 -6 -30 6 -37 23 -8 23 10 0 40 3 66 7
35 4 46 3 41 -5 -4 -7 -16 -12 -27 -12 -10 0 -19 -4 -19 -10 0 -12 121 -1 135
12 6 6 0 7 -17 3 -21 -5 -27 -3 -32 13 -5 15 -18 21 -49 25 -62 8 -149 25
-155 32 -9 9 339 8 371 -1 11 -4 16 -12 13 -20 -3 -8 1 -14 10 -14 8 0 12 5 8
11 -4 7 5 9 30 6 26 -4 36 -1 36 9 0 10 -12 14 -39 14 -22 0 -41 5 -43 10 -2
6 -26 11 -54 13 -46 2 -84 18 -84 36 0 4 26 15 58 26 31 10 62 22 67 25 6 4
28 8 49 8 22 1 44 6 50 12 5 5 8 10 5 11 -44 8 -59 8 -59 -1 0 -5 -11 -10 -25
-10 -14 0 -25 -5 -25 -10 0 -6 -15 -10 -33 -8 -18 1 -39 -2 -47 -7 -13 -8 -13
-6 -2 8 12 14 10 15 -25 10 -21 -3 -44 -12 -50 -21 -7 -9 -13 -12 -13 -7 0 5
-5 4 -12 -3 -17 -17 -45 -15 -45 3 0 9 9 15 22 15 12 0 29 6 38 13 14 10 0 12
-80 12 -126 -1 -163 -6 -99 -14 29 -4 51 -12 54 -20 3 -8 0 -11 -6 -7 -5 3 -9
-2 -8 -12 1 -13 -6 -17 -34 -15 -19 1 -37 2 -39 2 -2 1 2 8 9 16 11 14 10 14
-14 5 -15 -5 -86 -12 -157 -15 -72 -3 -134 -7 -137 -9 -4 -2 -15 6 -24 18 -16
23 -16 23 27 23 24 0 50 4 57 10 20 16 76 24 216 31 17 1 32 6 32 11 0 5 -9 7
-20 4 -12 -3 -20 0 -20 7 0 9 11 11 39 6 22 -3 48 -3 58 1 16 6 15 8 -7 14
l-25 7 26 1 c14 1 31 -5 38 -11 12 -11 13 -10 7 6 -5 14 -2 17 9 12 9 -3 15 0
15 9 0 10 10 15 30 15 23 0 30 -4 30 -20 0 -12 -5 -17 -13 -14 -7 2 -21 -3
-32 -11 -19 -16 -19 -16 10 -10 17 4 38 14 48 22 10 10 17 11 17 5 0 -7 7 -9
17 -5 12 5 15 2 10 -10 -8 -20 9 -23 20 -3 6 9 42 15 123 20 63 4 120 12 125
17 9 9 -139 5 -211 -6 -21 -3 -27 15 -11 31 4 4 7 14 7 23 -1 13 -3 13 -15 -3
-8 -11 -21 -16 -30 -13 -8 4 -15 2 -15 -3 0 -5 8 -11 18 -13 9 -3 2 -5 -15 -6
-24 -1 -33 3 -33 14 0 25 -23 27 -94 10 -37 -8 -73 -12 -78 -9 -7 4 -8 2 -4
-5 21 -33 -52 -41 -294 -32 -54 2 -54 2 -30 17 25 15 25 15 -13 10 -22 -3 -35
-1 -32 5 4 5 24 9 46 9 28 0 38 -4 33 -11 -5 -9 21 -10 101 -5 59 4 115 10
124 14 21 8 -45 21 -116 21 -28 1 -58 4 -67 7 -27 10 -18 21 14 16 17 -2 30 0
30 4 0 5 30 8 67 8 38 -1 56 0 41 3 -16 2 -28 9 -28 14 0 6 14 7 35 3 20 -3
111 0 203 7 l167 14 -150 6 c-82 3 -162 2 -177 -2 -17 -4 -30 -3 -34 3 -4 6
-32 7 -75 3 -84 -8 -97 10 -15 20 49 6 54 9 44 25 -9 15 -22 17 -72 14 l-61
-4 49 14 c27 8 52 19 55 24 3 4 14 11 24 15 10 4 15 12 12 18 -4 6 2 13 14 16
11 3 18 9 15 14 -10 16 -24 9 -66 -31 -46 -44 -62 -46 -29 -4 12 15 19 29 16
32 -3 3 -11 -2 -18 -10 -8 -10 -37 -18 -86 -23 -40 -3 -80 -9 -90 -12 -11 -4
-13 -3 -6 5 6 7 34 16 63 22 29 5 65 16 81 25 17 8 37 15 46 15 8 0 15 7 15
16 0 14 1 14 16 0 17 -18 44 -21 44 -7 0 5 -7 17 -16 25 -14 15 -14 16 5 16
13 0 19 -5 15 -14 -9 -23 12 -28 112 -30 52 0 94 -2 94 -4 0 -1 -7 -13 -15
-25 -14 -22 -14 -23 20 -19 25 3 35 0 36 -9 0 -8 5 -3 10 10 7 18 6 27 -3 33
-7 4 -8 8 -3 8 117 9 174 25 156 43 -7 7 -15 6 -25 -2 -19 -16 -171 -20 -171
-4 0 6 -3 14 -7 18 -9 9 -50 -4 -43 -14 8 -14 -82 -21 -114 -10 -45 16 -40 35
8 31 21 -2 41 0 45 6 3 5 -5 7 -19 4 -19 -3 -25 0 -25 12 0 10 3 15 8 12 4 -2
16 2 27 11 19 13 18 14 -10 7 -16 -4 -38 -8 -47 -8 -11 0 -14 -4 -8 -12 7 -8
-7 -15 -46 -23 -41 -9 -58 -18 -61 -32 -3 -10 -10 -19 -15 -19 -5 0 -6 9 -3
20 4 11 2 20 -4 20 -6 0 -11 -7 -11 -16 0 -14 -2 -15 -17 -3 -9 8 -25 13 -36
11 -12 -2 -17 1 -13 7 4 6 17 11 29 10 37 0 117 17 128 28 8 8 -4 8 -38 1 -26
-5 -66 -10 -88 -11 -22 -1 -47 -8 -55 -16 -13 -13 -15 -13 -18 1 -2 11 -10 14
-24 10 -17 -4 -20 -2 -15 11 3 9 1 18 -6 21 -7 3 1 4 18 3 22 -1 31 3 33 16 5
24 42 63 42 44 0 -7 -7 -22 -15 -33 -8 -10 -15 -22 -15 -25 0 -14 77 -15 120
-2 25 7 62 13 82 11 21 -1 41 1 44 5 7 7 -20 12 -40 8 -5 -1 -13 3 -17 10 -5
9 -20 7 -60 -9 -29 -12 -55 -19 -58 -16 -3 4 -1 8 4 11 6 2 17 8 25 13 13 9
13 11 0 20 -12 8 -11 10 8 10 13 0 20 -4 17 -10 -3 -6 1 -7 9 -4 21 8 20 20
-1 34 -14 8 -5 10 39 5 35 -4 59 -2 63 4 4 7 -6 11 -27 12 -18 1 -44 4 -58 8
l-25 7 28 8 c20 5 27 11 23 22 -3 9 -6 21 -6 27 0 7 -4 7 -9 -2 -12 -19 -52
-21 -69 -4 -7 7 -22 13 -33 13 -10 0 -19 4 -19 9 0 14 76 22 104 11 14 -5 33
-7 42 -3 9 3 20 0 26 -8 7 -10 8 -8 3 7 -5 20 0 22 67 29 40 4 87 8 103 9 17
1 33 4 36 8 6 9 253 14 319 7 25 -3 51 -8 58 -13 13 -8 29 20 18 31 -3 4 -6 1
-6 -5 0 -7 -4 -12 -9 -12 -5 0 -8 8 -7 18 2 13 20 20 82 30 43 7 83 17 87 21
4 5 -100 6 -232 3 -156 -3 -241 -1 -241 5 0 9 203 24 395 28 38 1 70 6 72 12
2 5 -94 10 -248 11 -139 1 -256 5 -261 10 -6 6 39 10 108 11 142 2 166 11 33
12 -67 0 -87 3 -71 9 12 5 70 8 128 5 58 -2 112 -1 120 2 8 3 14 19 14 37 1
28 2 29 14 13 12 -15 14 -16 20 -2 3 9 18 15 41 15 33 0 35 -2 29 -27 -4 -22
-3 -25 5 -13 15 21 14 56 -4 90 -11 22 -29 33 -79 49 -36 12 -78 21 -93 22
l-28 1 25 8 c14 4 68 8 121 9 80 1 98 -2 103 -15z m43 -1668 c4 -3 2 -7 -3 -7
-5 -1 -20 -3 -34 -5 -14 -1 -43 -5 -65 -8 -22 -3 -83 0 -136 6 -97 11 -169 5
-169 -13 0 -6 4 -8 9 -5 16 11 225 -16 246 -31 18 -13 10 -14 -74 -8 -52 4
-101 9 -110 13 -14 5 -14 4 -1 -13 14 -17 13 -18 -30 -12 -25 4 -143 7 -263 8
-120 2 -221 7 -224 12 -3 5 0 14 7 20 10 9 11 9 5 -2 -5 -9 1 -8 18 4 20 13
57 18 164 21 188 6 282 14 288 24 6 10 362 6 372 -4z m-137 -101 c-8 -9 -21
-13 -36 -9 -13 3 -41 3 -62 -2 l-37 -7 40 -8 c22 -4 59 -8 82 -8 23 -1 45 -5
48 -11 4 -6 -43 -11 -132 -12 -259 -4 -266 -4 -271 10 -2 8 9 12 38 12 23 0
50 5 60 10 11 6 34 12 52 14 18 2 40 6 48 9 8 4 42 8 74 9 33 2 71 4 84 5 21
3 22 1 12 -12z m143 -74 c-4 -17 -17 -21 -84 -27 -48 -4 -76 -10 -72 -17 3 -6
29 -7 63 -4 46 5 59 3 64 -8 5 -14 -11 -19 -52 -18 -7 1 -11 -5 -8 -13 4 -11
2 -12 -15 -1 -15 9 -21 9 -27 0 -6 -10 -16 -10 -47 0 -30 9 -39 9 -43 -1 -2
-7 -8 -12 -13 -12 -6 0 -7 5 -4 11 4 6 -2 13 -14 16 -12 3 -21 13 -22 22 0 10
-2 11 -6 4 -2 -7 -20 -13 -39 -13 -24 0 -33 4 -28 12 5 8 -2 9 -27 3 -19 -4
-44 -7 -57 -6 -16 1 -22 -4 -20 -17 2 -13 -5 -18 -30 -20 -18 -2 -39 2 -47 8
-8 7 -15 7 -19 1 -4 -6 -18 -6 -37 -1 -23 7 -37 5 -53 -5 -11 -8 -15 -15 -8
-15 6 0 12 -4 12 -8 0 -8 -24 -12 -77 -12 -18 1 -33 -4 -33 -11 0 -6 -7 -8
-16 -5 -9 4 -59 13 -110 20 -51 8 -98 17 -103 20 -5 4 -12 2 -15 -3 -3 -5 19
-17 49 -27 59 -18 63 -27 15 -30 -21 -1 -30 3 -30 13 0 10 -6 13 -16 9 -10 -4
-22 1 -29 12 -10 13 -23 17 -54 14 -23 -2 -41 -7 -41 -11 0 -4 -7 -8 -15 -8
-8 0 -15 4 -15 9 0 4 7 8 15 8 8 0 15 5 15 10 0 6 11 10 25 10 31 0 33 17 3
22 -12 2 -23 8 -25 15 -3 8 10 7 44 -3 26 -8 84 -17 128 -20 44 -3 94 -10 112
-16 33 -9 123 -2 123 11 0 12 -130 33 -216 36 -107 4 -151 25 -49 24 39 0 96
3 128 6 50 6 56 5 51 -9 -5 -13 1 -16 34 -16 22 0 48 -3 58 -7 10 -4 15 -2 11
3 -3 6 7 10 24 10 20 0 28 -4 25 -13 -7 -17 129 -19 140 -2 4 8 -12 10 -55 7
-33 -1 -61 0 -61 4 0 9 59 16 190 22 265 14 318 18 360 25 25 5 46 9 47 10 0
0 -1 -8 -4 -18z m-27 -246 c-9 -7 -15 -19 -14 -26 5 -22 -87 -49 -189 -54 -69
-4 -102 -10 -114 -21 -12 -11 -27 -14 -44 -10 -39 10 -30 23 23 32 45 7 46 8
17 15 -27 6 -26 7 15 9 81 3 114 2 148 -5 28 -6 32 -5 32 13 0 11 6 23 13 26
6 3 3 4 -7 3 -10 -1 -21 4 -23 11 -3 8 8 12 36 12 22 0 42 4 45 8 3 4 22 6 42
4 33 -4 36 -6 20 -17z m7 -660 c-2 -11 3 -54 11 -95 8 -41 18 -98 22 -126 7
-57 20 -85 32 -69 4 6 16 16 27 24 11 8 6 0 -11 -18 l-31 -32 19 -97 c28 -139
29 -142 35 -194 3 -30 2 -48 -5 -48 -12 0 -42 45 -42 64 0 8 -6 27 -14 43 -26
50 -59 143 -81 229 -12 46 -25 81 -28 77 -4 -3 -7 3 -7 13 0 16 -6 20 -30 18
-16 -1 -34 4 -40 11 -8 10 -4 13 17 13 14 0 32 7 39 16 9 13 13 14 17 4 4 -9
6 -8 6 3 1 9 -5 19 -13 22 -11 5 -9 21 11 94 14 48 26 97 27 108 1 10 8 26 16
35 13 14 16 11 21 -30 4 -25 5 -54 2 -65z m4905 -795 c17 -11 32 -17 32 -14 0
3 7 -2 16 -10 8 -9 22 -16 30 -16 8 0 14 -4 14 -9 0 -11 26 -22 64 -27 16 -2
38 -11 48 -21 10 -9 21 -14 23 -11 3 3 -17 30 -45 61 -54 59 -69 89 -22 44 16
-15 31 -25 35 -22 4 3 5 2 3 -1 -2 -3 20 -31 51 -61 38 -39 51 -59 44 -66 -7
-7 -18 -7 -36 1 -15 7 -30 10 -35 7 -5 -3 -11 -1 -15 4 -7 12 -63 21 -160 26
-38 2 -97 13 -130 24 l-60 20 55 -5 c64 -7 59 -7 85 -5 20 2 20 2 1 16 -27 20
-11 19 52 -5 28 -11 52 -17 52 -12 0 9 -122 82 -138 82 -6 0 -14 5 -17 10 -10
17 18 11 53 -10z m-316 -154 l3 -149 30 -9 c99 -30 292 -139 369 -209 134
-123 288 -494 375 -909 17 -78 44 -285 44 -325 -1 -24 -24 -227 -35 -292 -8
-57 -8 -76 2 -88 10 -12 10 -15 -2 -15 -10 0 -19 -20 -28 -57 -22 -94 -69
-223 -112 -307 -42 -84 -79 -139 -86 -131 -3 3 3 14 12 24 10 11 15 25 10 32
-5 8 -3 10 6 4 10 -6 12 -4 7 9 -4 10 -1 19 7 22 8 3 13 16 11 30 -1 13 3 24
8 24 8 0 8 3 0 11 -14 14 -5 49 12 49 8 0 16 -8 19 -17 3 -10 3 0 1 22 -3 27
1 45 12 57 22 24 26 55 13 91 -8 25 -8 28 5 17 10 -8 15 -9 15 -2 0 6 -4 14
-10 17 -5 3 -10 11 -10 18 0 8 3 8 12 -1 7 -7 16 -12 20 -12 12 0 10 42 -3 60
-8 12 -9 10 -4 -7 3 -13 2 -23 -3 -23 -4 0 -8 13 -8 29 0 17 3 28 8 25 4 -3 8
4 8 16 0 12 -4 18 -10 15 -5 -3 -10 -2 -10 4 0 5 5 13 10 16 6 3 10 1 10 -5 0
-6 5 -8 11 -5 7 5 4 14 -7 26 -9 10 -13 19 -7 19 5 0 10 24 11 53 0 77 2 90
13 103 6 7 10 38 10 69 0 39 4 53 12 49 8 -5 8 -2 0 7 -20 20 -17 108 3 116
16 6 16 7 1 18 -13 9 -17 31 -18 93 -1 44 2 85 6 91 3 6 1 11 -5 11 -7 0 -9 7
-6 15 3 9 -2 48 -10 88 -9 40 -18 81 -20 92 -2 11 -10 48 -19 83 -8 35 -12 68
-9 74 4 6 2 8 -4 4 -10 -6 -14 1 -27 59 -4 16 -10 32 -13 35 -4 3 -24 39 -45
80 -88 177 -167 317 -197 351 -35 39 -77 63 -150 85 -72 22 -70 16 3 -16 81
-34 127 -68 157 -112 21 -32 21 -32 1 -9 -20 22 -21 22 -21 3 0 -11 20 -44 43
-74 24 -29 56 -75 71 -103 16 -27 48 -82 72 -121 72 -116 123 -292 138 -484 3
-36 8 -101 12 -145 5 -65 3 -87 -10 -113 -18 -35 -21 -37 -32 -20 -4 7 -3 8 4
4 8 -5 12 3 12 23 0 16 -4 33 -10 36 -6 4 -7 -1 -3 -11 4 -12 3 -15 -5 -10 -7
4 -12 16 -12 27 0 10 -4 19 -9 19 -6 0 -8 9 -6 20 5 26 -4 52 -15 45 -12 -8
-10 -85 2 -85 7 0 7 -4 0 -12 -6 -8 -12 -98 -14 -220 -2 -149 -6 -208 -15
-208 -6 0 -9 -9 -6 -21 4 -16 2 -20 -8 -17 -8 3 -14 10 -14 15 0 6 -3 15 -7
19 -13 12 -9 44 6 50 8 3 13 11 11 17 -9 25 -12 126 -4 122 8 -6 4 219 -5 265
-21 108 -52 208 -68 225 -20 20 -20 20 -13 -20 4 -22 9 -55 11 -74 3 -19 7
-38 10 -42 3 -5 9 -44 14 -86 9 -80 -3 -203 -21 -203 -5 0 -6 14 -2 30 4 23 2
30 -10 30 -8 0 -24 3 -34 6 -15 6 -16 4 -5 -7 20 -22 13 -30 -8 -9 -25 25 -25
30 -2 30 15 0 18 7 17 33 -3 49 -8 61 -30 69 -17 5 -16 6 7 7 21 1 25 5 21 21
-3 11 -12 20 -20 20 -9 0 -13 6 -10 15 4 8 2 17 -3 20 -4 3 -10 -1 -13 -7 -2
-7 -9 4 -16 25 -11 33 -16 37 -46 37 -29 0 -34 4 -40 30 -4 17 -11 30 -16 30
-6 0 -8 10 -4 23 5 17 4 19 -4 6 -7 -11 -7 -28 -1 -49 6 -22 6 -38 -1 -46 -5
-7 -11 -27 -12 -46 -1 -18 -6 -39 -11 -46 -4 -7 -5 -16 -2 -19 3 -4 6 -1 6 5
0 7 7 12 15 12 21 0 19 -9 -7 -29 -15 -12 -18 -20 -10 -25 7 -4 12 -1 12 9 0
9 4 14 8 11 11 -7 2 -86 -10 -86 -6 0 -7 11 -4 25 7 28 1 32 -20 11 -18 -19
-18 -46 1 -46 8 0 15 -4 15 -10 0 -5 -4 -10 -10 -10 -5 0 -10 -7 -10 -15 0 -8
5 -15 10 -15 6 0 10 5 10 10 0 13 27 13 35 0 3 -6 -1 -7 -9 -4 -9 3 -18 0 -21
-8 -8 -20 -35 -19 -35 1 0 14 -2 14 -10 1 -7 -11 -5 -19 10 -32 24 -19 26 -38
5 -38 -8 0 -15 -7 -15 -17 0 -14 -2 -14 -21 3 -22 19 -22 19 -12 -1 7 -14 7
-28 0 -45 -5 -14 -9 -33 -8 -42 1 -10 -2 -18 -7 -18 -5 0 -7 -13 -4 -29 4 -27
2 -29 -27 -27 -17 1 -36 7 -43 14 -9 9 -2 10 28 7 l39 -5 -27 22 c-20 18 -24
28 -18 43 7 17 9 17 9 3 1 -10 6 -18 12 -18 5 0 7 5 3 12 -4 6 2 18 12 26 18
14 18 14 -3 8 -17 -5 -21 -3 -19 11 2 10 -1 28 -5 41 -6 14 -5 22 2 22 6 0 9
7 6 15 -4 8 -3 16 1 19 4 2 6 23 4 45 -2 23 -8 38 -13 35 -11 -6 -12 9 -2 20
4 3 13 -4 20 -16 11 -21 12 -18 11 30 -1 52 -11 68 -21 32 -3 -10 0 -21 7 -24
6 -2 3 -5 -6 -5 -11 -1 -20 -12 -23 -28 -18 -87 -49 -199 -58 -208 -7 -7 -8
-4 -4 8 4 9 2 17 -4 17 -6 0 -7 5 -4 10 3 6 3 15 -1 22 -5 7 -11 5 -21 -7 -12
-17 -13 -17 -13 -2 0 9 -4 17 -10 17 -5 0 -10 -7 -10 -16 0 -11 -5 -14 -16
-10 -10 4 -14 1 -11 -6 2 -7 11 -12 20 -10 13 2 15 -4 10 -35 -3 -21 -9 -40
-13 -43 -3 -3 -17 -32 -30 -65 -13 -33 -27 -62 -31 -65 -4 -3 -9 -16 -10 -30
-3 -17 -11 -26 -26 -28 -27 -4 -30 12 -5 28 14 9 12 10 -10 5 -16 -3 -28 -1
-28 4 0 5 14 13 31 16 18 4 27 10 21 14 -6 4 -12 25 -13 48 -2 25 -9 45 -17
48 -9 3 -12 -1 -7 -14 3 -11 1 -22 -5 -26 -6 -3 -8 -11 -5 -16 4 -5 -5 -13
-19 -19 -14 -5 -26 -14 -26 -20 0 -5 -9 -19 -19 -29 -18 -18 -20 -18 -24 -3
-3 15 -5 14 -12 -3 -16 -37 -31 -46 -60 -35 -35 13 -40 13 -25 -5 14 -17 0
-21 -17 -4 -9 9 -8 16 4 28 12 12 17 13 21 3 2 -6 11 -12 21 -12 16 0 17 10
12 63 -1 4 -6 7 -12 7 -7 0 -9 -10 -5 -27 6 -27 6 -27 -9 -8 -16 20 -16 20
-31 1 -8 -11 -14 -16 -14 -10 0 5 12 22 27 38 17 19 23 31 15 34 -7 2 -12 11
-12 19 0 12 -3 13 -14 4 -10 -8 -16 -8 -25 2 -6 8 -9 16 -6 19 3 3 -1 11 -10
18 -25 21 -17 33 11 15 22 -14 28 -15 36 -4 6 10 7 7 3 -8 -4 -14 -2 -23 5
-23 6 0 9 4 5 9 -3 5 -1 12 5 16 17 10 11 25 -12 35 -17 6 -18 9 -6 9 9 1 20
-4 23 -9 4 -6 11 -8 16 -4 5 3 6 10 3 16 -4 7 -2 8 5 4 6 -4 9 -12 6 -17 -4
-5 -2 -9 3 -9 19 0 21 14 5 33 -17 19 -17 20 4 8 30 -15 36 -14 29 5 -6 15 -4
15 10 3 15 -12 16 -12 10 8 -9 27 9 40 23 16 14 -26 25 -9 11 17 -11 20 -10
21 9 10 19 -10 25 -7 22 12 0 4 6 5 13 2 10 -4 13 0 10 13 -4 14 1 19 22 21
15 1 32 8 37 15 6 9 10 9 13 1 3 -7 15 -9 26 -6 21 5 21 6 2 14 -14 6 -11 7
13 5 18 -2 35 1 38 7 3 7 7 7 11 -2 4 -9 17 -2 40 23 19 20 34 42 35 48 0 7 3
21 5 32 3 11 5 28 5 38 0 9 6 17 12 17 7 1 1 7 -13 15 -22 12 -21 20 3 16 4 0
7 6 7 14 0 18 -5 19 -32 4 -18 -10 -20 -9 -15 5 9 21 15 43 10 34 -3 -5 -13
-8 -23 -8 -14 0 -18 -7 -18 -27 1 -61 -2 -69 -34 -81 -33 -12 -53 -7 -29 7 9
6 10 11 2 15 -6 4 -11 2 -11 -4 0 -6 -4 -8 -10 -5 -5 3 -10 2 -10 -4 0 -5 5
-13 10 -16 15 -9 12 -25 -5 -25 -8 0 -20 -9 -27 -20 -7 -11 -17 -20 -22 -20
-5 0 1 11 14 25 13 14 20 26 17 26 -4 1 -12 2 -19 3 -6 0 -13 7 -16 15 -3 9 2
11 17 6 18 -5 21 -3 18 15 -2 12 -10 26 -18 31 -12 8 -11 12 5 24 13 10 23 11
31 5 23 -19 23 2 -1 37 -13 20 -24 41 -24 47 1 6 9 -3 18 -19 10 -19 23 -30
34 -27 9 2 19 -2 23 -7 3 -6 2 -11 -3 -11 -16 0 -20 -59 -5 -72 10 -8 17 -7
28 8 7 10 9 21 4 22 -12 5 -11 39 2 47 7 5 4 13 -8 25 -12 12 -22 14 -30 8
-15 -12 -33 -2 -33 18 0 12 7 14 29 9 17 -3 32 -2 36 4 7 12 -12 15 -59 12
-22 -2 -27 1 -23 12 6 16 -38 45 -50 34 -3 -4 -1 -7 6 -7 7 0 9 -4 6 -10 -3
-6 1 -7 10 -4 14 6 15 1 10 -29 -4 -20 -2 -44 4 -56 10 -17 9 -20 -4 -15 -8 4
-15 17 -15 30 0 13 -5 24 -10 24 -7 0 -8 -18 -4 -50 5 -34 3 -50 -5 -50 -6 0
-11 9 -11 21 0 11 -5 17 -10 14 -6 -4 -8 -11 -5 -16 4 -5 2 -9 -4 -9 -5 0 -18
-3 -28 -6 -17 -5 -17 -5 0 9 17 14 25 43 8 33 -5 -3 -15 2 -22 11 -12 14 -11
15 9 9 23 -8 28 0 13 23 -6 9 -19 12 -39 8 -26 -5 -29 -4 -25 14 3 11 2 19 -3
18 -20 -3 -28 2 -15 10 7 5 10 14 7 20 -12 18 -36 -11 -25 -31 5 -9 8 -27 8
-40 -1 -13 1 -30 5 -39 4 -10 2 -20 -5 -25 -8 -4 -10 -3 -5 5 8 12 -18 44 -28
34 -3 -4 -6 -1 -6 5 0 7 6 12 13 12 9 0 9 2 -1 9 -8 4 -13 14 -12 22 5 31 -1
60 -10 54 -5 -3 -8 -24 -7 -46 2 -24 0 -36 -6 -30 -5 5 -17 1 -28 -10 -15 -15
-17 -24 -9 -39 14 -27 22 -25 15 3 -5 18 -2 23 14 24 12 1 21 -3 21 -8 0 -6
-4 -7 -10 -4 -5 3 -10 -1 -10 -9 0 -9 5 -16 10 -16 6 0 10 -4 10 -9 0 -6 -8
-10 -17 -10 -10 0 -34 -2 -53 -5 -19 -3 -30 -3 -23 0 6 3 17 27 24 55 7 27 16
49 20 49 4 0 5 10 3 23 -2 12 -2 16 2 10 3 -7 10 -13 16 -13 6 0 6 6 -2 15 -7
8 -19 15 -27 15 -7 0 -16 7 -19 15 -4 8 -10 12 -15 9 -13 -8 -11 -34 2 -31 6
1 14 -4 16 -11 3 -7 -1 -10 -10 -6 -12 4 -14 0 -10 -15 4 -15 1 -21 -11 -21
-19 0 -22 -16 -4 -22 7 -3 3 -7 -8 -10 -17 -4 -20 -1 -16 19 2 13 8 26 13 29
16 9 10 34 -6 28 -8 -4 -15 -1 -15 5 0 6 6 11 13 11 7 0 13 9 14 20 2 23 -1
24 -28 10 -13 -8 -19 -7 -19 0 0 6 13 13 29 16 25 5 29 10 27 36 -2 27 -1 28
11 12 12 -17 13 -17 13 3 0 11 -7 23 -15 27 -13 4 -13 10 1 48 8 24 21 48 30
54 13 10 13 12 -1 18 -9 3 -18 -1 -22 -10 -3 -8 -11 -13 -18 -10 -14 5 -71
-72 -60 -82 3 -4 10 0 15 8 6 8 10 10 10 4 0 -6 -7 -17 -15 -24 -8 -7 -15 -9
-15 -5 0 4 -7 2 -16 -6 -14 -12 -14 -14 5 -21 12 -4 21 -13 20 -20 0 -10 -2
-10 -6 0 -2 6 -11 12 -19 12 -17 0 -55 -36 -46 -44 3 -3 0 -6 -7 -6 -8 0 -10
-7 -6 -19 3 -11 0 -23 -6 -27 -9 -5 -10 -2 -6 9 8 21 -18 23 -30 3 -4 -8 -25
-24 -46 -36 -30 -18 -49 -22 -92 -18 -59 5 -129 43 -120 66 3 7 1 11 -4 8 -10
-7 -26 23 -30 55 0 5 -5 8 -9 5 -4 -2 -9 6 -10 18 -1 13 -6 34 -12 47 -9 22
-9 21 -6 -8 2 -18 -1 -36 -6 -39 -6 -4 -8 -2 -4 4 3 6 2 13 -3 17 -7 4 -7 15
-1 31 15 38 12 43 -15 38 -30 -5 -33 14 -8 57 16 27 10 57 -6 31 -5 -9 -11 -6
-19 12 -10 22 -9 23 11 18 21 -5 21 -5 5 12 -21 20 -22 28 -8 42 8 8 6 15 -4
23 -10 8 -16 9 -21 1 -3 -5 2 -10 12 -10 15 0 15 -2 3 -9 -8 -6 -18 -7 -22 -5
-4 3 -8 -2 -8 -11 0 -9 -4 -14 -9 -10 -5 3 -12 -3 -14 -12 -4 -15 -5 -15 -6
-2 0 9 12 32 29 50 32 37 39 69 15 69 -8 0 -15 5 -15 10 0 6 5 10 10 10 6 0
10 6 9 13 -3 24 1 38 9 33 5 -3 9 1 9 8 0 8 -6 12 -13 9 -6 -2 -15 1 -20 8 -4
7 -3 10 2 7 5 -3 15 1 22 8 12 13 10 14 -11 9 -36 -9 -46 14 -16 38 17 14 18
18 6 14 -11 -4 -16 -3 -12 3 3 6 -1 13 -10 16 -14 6 -13 10 9 29 25 21 37 53
16 40 -5 -3 -10 0 -10 7 0 10 -3 9 -11 -2 -12 -16 -12 -18 6 39 4 15 3 21 -3
17 -10 -6 -26 23 -17 32 3 3 5 1 5 -4 0 -5 17 -9 38 -9 36 0 37 2 43 40 l6 40
1 -40 c2 -49 -7 -87 -19 -79 -5 3 -9 0 -9 -5 0 -6 3 -11 8 -11 4 0 7 -73 8
-163 0 -114 5 -186 17 -241 16 -72 16 -81 1 -97 -9 -10 -11 -19 -5 -23 5 -3
11 2 13 11 2 11 13 -6 26 -42 12 -33 28 -71 35 -84 19 -38 84 -100 112 -107
36 -9 117 5 109 18 -4 6 -3 8 3 5 13 -8 36 17 25 28 -4 5 -2 5 4 2 15 -8 38
18 29 33 -3 6 3 10 14 10 12 0 21 3 21 8 0 4 12 21 28 37 41 45 82 102 82 114
0 6 4 11 8 11 4 0 16 22 27 50 11 27 26 52 34 55 20 8 28 -4 11 -16 -11 -8
-10 -9 8 -4 26 7 28 0 7 -21 -8 -9 -15 -25 -14 -37 0 -18 3 -17 15 10 7 17 18
34 24 38 13 8 -26 45 -47 45 -7 0 -13 9 -13 21 0 11 5 17 10 14 6 -4 8 -11 5
-16 -4 -5 -2 -9 4 -9 15 0 23 18 10 22 -15 5 -14 51 0 113 7 28 16 70 21 95 4
25 18 83 30 130 12 47 27 105 33 130 6 25 15 48 19 51 5 3 10 17 12 30 3 27
42 163 57 194 5 11 11 31 13 45 3 14 12 51 20 83 9 31 18 76 21 99 3 23 9 45
13 49 11 11 96 27 104 20 4 -4 9 -73 10 -155z m-152 133 c0 -28 -46 -182 -109
-366 -60 -175 -80 -220 -152 -342 -46 -77 -87 -137 -91 -133 -7 7 -15 38 -49
197 -12 55 -33 135 -47 178 -28 85 -30 73 30 177 152 269 161 279 245 290 92
12 173 11 173 -1z m1196 -943 c38 -14 107 -38 154 -55 46 -17 97 -31 112 -31
15 0 28 -4 28 -8 0 -5 17 -16 38 -25 20 -9 87 -43 147 -76 61 -32 139 -73 175
-90 36 -18 92 -49 125 -70 33 -21 80 -49 105 -63 113 -63 231 -132 300 -177
41 -26 118 -74 170 -106 52 -32 139 -88 193 -124 54 -36 133 -88 176 -116 43
-27 103 -68 132 -91 50 -38 153 -111 267 -192 26 -17 56 -40 67 -49 39 -33
220 -158 495 -340 91 -60 191 -129 224 -154 87 -65 229 -177 246 -192 8 -8 83
-65 165 -127 138 -104 181 -140 345 -285 31 -27 105 -93 165 -145 60 -52 147
-132 194 -177 48 -45 97 -90 111 -101 14 -11 57 -50 95 -86 39 -36 91 -76 118
-89 54 -25 59 -34 18 -31 -31 2 -32 3 -240 195 -342 315 -769 684 -780 673 -2
-2 -23 12 -46 31 -23 19 -44 35 -47 35 -3 0 -29 22 -58 50 -28 27 -61 52 -73
56 -12 4 -26 13 -32 19 -23 29 -207 165 -216 160 -5 -4 -17 -1 -26 5 -15 9
-14 10 6 4 35 -9 19 9 -47 53 -31 22 -88 61 -127 87 -38 27 -64 42 -57 35 14
-15 16 -29 3 -29 -5 0 -19 15 -30 34 -26 42 -94 88 -117 79 -13 -5 -16 -2 -12
9 7 18 -33 41 -57 32 -8 -4 -15 -1 -15 6 0 6 5 8 10 5 6 -3 10 -3 10 2 0 4
-12 16 -28 25 -28 17 -80 52 -164 110 -26 18 -47 36 -48 40 0 3 -17 17 -37 29
-21 13 -78 55 -128 92 -92 71 -129 92 -155 88 -13 -2 -13 -1 0 8 13 9 13 11
-2 11 -10 0 -18 5 -18 10 0 6 -5 10 -11 10 -5 0 -8 -4 -5 -8 2 -4 0 -14 -5
-22 -9 -13 -10 -13 -8 0 3 34 -16 58 -77 95 -36 22 -69 40 -75 40 -5 0 -13 5
-17 10 -4 6 -32 28 -62 50 -51 35 -53 36 -30 9 42 -49 66 -100 35 -74 -8 7
-15 19 -15 27 0 9 -6 13 -15 10 -8 -4 -17 -1 -21 5 -4 7 -3 8 4 4 17 -11 15 9
-3 24 -8 7 -15 18 -15 25 0 7 -26 30 -57 50 -32 21 -69 46 -83 55 -14 9 -54
33 -90 54 -86 49 -99 57 -136 83 -19 13 -40 20 -55 17 -19 -3 -20 -3 -6 4 15
6 -2 20 -87 70 -58 34 -108 62 -110 62 -3 0 -30 16 -60 35 -30 19 -59 35 -63
35 -5 0 -25 9 -45 20 -21 11 -45 17 -55 14 -14 -5 -15 -4 -4 4 19 14 -77 63
-108 55 -12 -3 -21 -1 -21 6 0 5 8 8 18 5 9 -3 -1 5 -23 18 -26 16 -42 21 -47
14 -5 -7 -8 -5 -8 4 0 20 -125 81 -147 73 -12 -5 -15 -2 -11 9 5 11 -7 19 -40
31 -26 10 -50 16 -53 15 -3 -2 -13 3 -22 10 -9 8 -21 11 -28 7 -6 -4 -15 -2
-19 5 -4 6 -32 20 -61 31 -169 58 -243 89 -203 84 23 -3 73 -16 110 -29z
m-2036 -765 c-8 -28 -7 -32 6 -27 9 3 23 6 32 7 11 0 12 2 5 6 -7 2 -13 9 -13
14 0 6 5 7 10 4 6 -3 10 1 10 9 0 9 5 16 10 16 6 0 10 -16 10 -35 0 -28 4 -35
20 -35 11 0 20 5 20 10 0 6 -6 9 -12 8 -12 -3 -13 7 -6 59 1 7 4 11 7 9 38
-21 83 -37 89 -32 3 4 0 11 -7 15 -7 5 -9 11 -4 14 14 8 37 -9 29 -22 -4 -6
-2 -11 4 -11 6 0 8 -4 5 -10 -3 -5 -1 -10 5 -10 7 0 9 8 5 20 -7 21 13 28 31
10 5 -5 21 -11 34 -13 21 -3 25 -9 25 -40 0 -20 -2 -34 -4 -31 -2 2 -13 -4
-24 -13 -19 -17 -19 -17 -13 4 4 12 2 24 -4 28 -5 3 -10 15 -10 26 0 10 -4 19
-9 19 -5 0 -7 -9 -4 -20 5 -18 3 -19 -21 -10 -44 17 -56 13 -56 -19 0 -20 -6
-30 -20 -34 -15 -4 -20 -14 -21 -39 l-1 -33 -8 35 c-6 23 -5 37 3 42 6 4 8 11
3 15 -5 4 -11 2 -14 -6 -4 -11 -6 -11 -13 0 -8 12 -11 11 -19 -1 -5 -8 -9 -19
-9 -25 0 -5 3 -4 6 3 7 17 23 15 23 -2 0 -24 -22 -72 -27 -58 -7 19 -23 14
-23 -7 0 -14 -7 -18 -29 -17 -16 1 -33 5 -37 9 -15 15 -25 6 -18 -15 6 -20 5
-21 -10 -9 -9 8 -24 15 -34 15 -32 4 -73 29 -68 43 3 7 1 13 -4 13 -6 0 -10
-7 -10 -15 0 -8 -4 -15 -10 -15 -5 0 -9 6 -7 13 1 7 -6 11 -17 9 -11 -2 -15 1
-11 7 3 6 -1 19 -10 28 -14 14 -18 14 -26 2 -7 -11 -9 -11 -9 3 0 9 8 19 18
21 13 4 11 5 -5 6 -13 0 -23 -5 -23 -11 0 -9 -4 -8 -10 2 -15 23 -12 33 10 27
11 -3 18 -1 14 4 -8 13 10 11 24 -3 9 -9 12 -8 12 5 0 9 5 17 11 17 5 0 7 -6
3 -12 -5 -9 -2 -9 9 1 11 9 17 10 17 2 0 -6 5 -11 10 -11 6 0 10 8 10 18 1 16
1 16 10 0 9 -15 13 -14 35 8 14 14 25 33 25 42 1 16 2 16 14 0 14 -18 27 -24
25 -10 -3 20 3 31 19 34 24 5 33 -14 22 -51z"/>
<path d="M8136 5684 c90 -88 133 -147 171 -232 13 -31 31 -61 39 -65 8 -4 14
-16 14 -25 0 -22 31 -69 58 -88 20 -14 21 -13 19 27 -1 23 -7 43 -14 46 -7 3
-10 9 -7 15 3 5 3 21 -1 36 -7 27 -7 27 -16 5 -12 -33 -24 -28 -25 12 0 18 3
32 8 29 4 -3 8 2 8 12 0 13 -3 14 -14 5 -10 -8 -16 -8 -25 3 -8 10 -9 16 -1
21 5 3 10 14 10 23 -1 12 -6 8 -16 -10 -8 -16 -18 -28 -23 -28 -12 0 -32 50
-25 62 5 7 2 8 -5 4 -8 -5 -14 0 -18 13 -3 12 -9 21 -14 21 -5 0 -8 3 -7 8 3
11 -111 124 -157 157 -26 18 -11 0 41 -51z"/>
<path d="M8365 5630 c-3 -5 -1 -10 4 -10 6 0 10 -3 9 -7 0 -5 19 -51 44 -103
39 -81 100 -242 113 -298 2 -9 11 -42 20 -72 8 -30 18 -69 20 -86 2 -17 9 -42
14 -55 7 -18 9 -7 6 46 -1 39 -4 70 -5 70 -1 0 -3 22 -6 48 -2 26 -10 71 -19
99 -8 29 -15 62 -15 75 0 13 -4 31 -9 41 -6 9 -17 41 -26 70 -9 28 -21 50 -26
46 -5 -3 -9 4 -9 15 0 11 -5 23 -12 27 -7 5 -9 2 -4 -7 4 -8 -2 -3 -14 11 -11
14 -28 42 -36 63 -16 36 -36 48 -49 27z"/>
<path d="M14315 10945 c-5 -2 -143 -13 -305 -25 -162 -12 -299 -26 -305 -32
-6 -6 -5 -7 5 -4 8 2 60 7 115 10 55 3 152 11 215 16 173 15 360 22 290 10
-30 -5 -82 -12 -114 -16 -35 -3 -54 -9 -47 -14 8 -5 0 -10 -24 -14 -29 -6 -34
-10 -25 -20 8 -10 7 -15 -6 -20 -25 -9 -41 -7 -24 4 12 7 8 10 -15 10 -17 0
-40 -6 -51 -14 -11 -8 -36 -17 -56 -21 -20 -4 -39 -13 -42 -21 -4 -11 -10 -12
-25 -4 -11 5 -24 10 -29 10 -16 0 -23 -31 -12 -45 8 -9 8 -15 0 -20 -6 -3 -8
-11 -5 -16 9 -13 45 -11 45 2 0 8 4 8 14 -1 8 -6 25 -11 38 -10 41 4 59 0 53
-10 -10 -16 -145 -10 -152 6 -3 8 -13 14 -23 14 -11 0 -22 5 -25 10 -4 7 -12
7 -25 0 -10 -5 -29 -10 -41 -10 -12 0 -19 -3 -16 -7 4 -3 27 -5 52 -5 35 2 43
-1 39 -12 -6 -16 -70 -30 -124 -27 -19 1 -42 -3 -50 -9 -11 -7 -2 -10 33 -10
27 0 46 -4 43 -9 -3 -5 1 -14 9 -21 21 -17 -4 -40 -44 -40 -17 0 -31 -4 -31
-10 0 -8 61 -8 126 -1 6 0 16 13 23 27 7 16 17 24 26 20 8 -3 17 -1 20 4 10
16 71 12 85 -5 7 -8 19 -15 27 -15 8 0 20 -6 27 -13 19 -18 106 -22 106 -5 0
7 9 19 21 26 13 9 18 9 14 2 -4 -7 -1 -10 7 -8 13 3 18 -3 18 -20 0 -27 -157
-60 -255 -56 -43 3 -63 1 -50 -4 14 -6 -2 -11 -55 -15 -41 -3 -79 -2 -83 2 -5
5 -26 0 -47 -10 -27 -13 -59 -19 -102 -18 -47 1 -55 3 -33 8 26 6 20 8 -35 16
-36 4 -76 7 -90 7 -23 -2 -23 -1 -5 7 17 8 14 10 -17 10 -20 1 -39 -3 -42 -8
-7 -10 27 -21 64 -21 14 0 37 -8 50 -17 20 -14 44 -17 134 -15 59 1 117 7 128
13 11 6 33 7 51 3 39 -9 170 -5 177 5 11 16 102 31 188 31 95 0 112 -5 84 -26
-14 -11 -5 -14 68 -15 58 -1 77 -4 60 -9 -31 -10 -166 -10 -245 0 -33 4 -52 8
-42 9 23 1 12 21 -12 21 -13 0 -18 -8 -18 -25 0 -23 3 -25 51 -26 42 -1 36 -3
-31 -10 -45 -4 -91 -12 -102 -18 -25 -14 -141 -14 -141 -1 0 6 -16 10 -35 10
-26 0 -35 4 -35 16 0 14 -7 15 -37 10 -21 -3 -75 -9 -121 -12 -50 -4 -78 -10
-70 -15 7 -5 36 -6 64 -3 33 4 54 2 58 -5 4 -6 22 -12 39 -12 18 -1 -1 -5 -41
-9 -41 -5 -87 -4 -104 0 -33 10 -158 1 -158 -10 0 -5 -30 -7 -67 -5 -49 1 -73
-2 -85 -13 -10 -8 -28 -12 -43 -10 -16 3 -25 1 -25 -7 0 -17 32 -21 100 -15
52 6 53 12 5 24 -11 3 21 3 71 0 60 -4 94 -2 99 5 3 6 13 11 21 11 8 0 13 -4
9 -9 -7 -12 28 -23 49 -15 9 3 13 10 10 15 -3 5 2 9 11 9 10 0 13 -5 9 -12 -4
-6 -3 -8 2 -5 6 3 16 2 23 -2 7 -5 29 -4 50 0 63 16 177 28 199 23 14 -4 19
-11 15 -22 -5 -11 -3 -13 8 -7 7 5 37 10 65 12 29 1 62 6 75 11 30 10 131 3
124 -9 -3 -4 -13 -5 -21 -2 -9 3 -20 0 -24 -7 -7 -11 -61 -14 -237 -17 -125
-2 -241 -3 -256 -3 -15 0 -53 -7 -85 -17 -48 -15 -53 -18 -29 -21 16 -2 34 2
42 8 10 8 29 8 73 -1 59 -12 98 -8 87 11 -3 5 -1 10 4 10 6 0 11 -7 11 -15 0
-10 10 -15 30 -15 17 0 39 -6 50 -12 16 -10 25 -9 49 5 33 19 45 22 36 7 -3
-5 2 -9 12 -8 31 2 53 -2 53 -10 0 -4 -21 -8 -47 -8 -27 -1 -67 -4 -90 -9 -23
-4 -50 -4 -60 0 -10 5 -22 7 -27 6 -4 -1 -15 4 -22 10 -11 9 -18 9 -25 2 -7
-7 -22 -8 -42 -2 -26 7 -35 6 -47 -10 -11 -14 -32 -22 -75 -26 -132 -13 -241
-26 -264 -32 -21 -5 -22 -4 -11 17 15 27 0 40 -39 35 -14 -2 -35 -4 -45 -4
-32 -1 -7 -16 27 -16 27 0 32 -4 32 -25 0 -22 -6 -26 -40 -31 -45 -7 -38 -12
13 -9 17 1 32 -3 32 -9 0 -6 8 -11 18 -11 16 1 16 1 0 14 -10 7 -18 16 -18 20
0 10 58 7 65 -4 8 -13 55 -13 75 0 12 8 12 10 1 10 -28 0 -2 11 35 15 86 9
239 29 259 35 21 5 35 -1 35 -15 0 -11 5 -12 24 -5 42 16 224 32 244 21 11 -6
24 -6 35 0 11 7 17 7 17 0 0 -19 -164 -35 -189 -19 -15 9 -25 7 -51 -12 -28
-20 -38 -22 -69 -14 -20 5 -58 6 -86 2 -27 -4 -60 -6 -73 -3 -29 7 -150 -14
-159 -27 -4 -7 4 -8 23 -3 47 14 275 14 271 1 -2 -6 -22 -12 -45 -12 -75 -2
-69 -7 18 -14 47 -3 121 -2 165 3 44 5 103 9 132 9 29 -1 55 3 58 8 4 6 0 11
-7 11 -28 3 49 17 92 17 l45 0 -45 -13 c-43 -12 -41 -13 50 -9 52 2 148 4 213
5 64 1 117 5 117 10 0 5 -33 9 -74 9 -43 0 -78 5 -81 11 -5 7 18 10 74 7 75
-3 105 4 64 15 -17 4 -17 5 0 6 13 1 17 10 17 40 0 29 -5 41 -17 44 -17 4 -17
5 0 6 10 1 17 9 17 21 0 20 -11 24 -60 21 -24 -2 -24 -2 4 14 16 9 36 13 43
10 11 -4 13 7 11 48 l-3 52 -80 11 c-53 7 -74 13 -62 18 23 11 21 25 -5 36
l-23 9 22 6 c11 4 23 15 26 26 3 13 14 19 31 19 14 0 26 5 26 11 0 6 7 4 15
-5 19 -18 20 -37 1 -30 -8 3 -17 1 -20 -5 -4 -6 -13 -8 -21 -4 -9 3 -15 -1
-15 -11 0 -9 6 -16 14 -16 7 0 25 -9 39 -20 35 -28 57 -26 57 6 0 21 -4 24
-20 19 -15 -5 -18 -3 -14 9 3 9 12 16 20 16 11 0 14 28 14 146 0 135 -1 146
-17 140 -17 -6 -17 -5 0 8 9 7 17 25 17 40 0 24 -3 26 -37 25 -21 0 -42 -2
-48 -4z"/>
<path d="M14290 10160 c0 -6 -38 -8 -102 -5 -57 2 -139 0 -183 -6 -44 -6 -105
-14 -135 -17 -97 -12 -29 -20 90 -12 112 9 131 7 116 -7 -9 -9 -237 -22 -296
-17 -26 3 -38 1 -28 -3 10 -5 -42 -8 -115 -9 -215 -2 -302 -10 -299 -26 1 -8
-4 -15 -10 -16 -60 -6 -111 -38 -86 -53 10 -7 -72 -20 -102 -17 -47 4 -150 -3
-150 -12 0 -15 223 -13 256 2 22 10 28 10 32 0 4 -13 34 -16 46 -5 11 11 125
13 131 2 4 -5 25 -10 48 -10 l42 -1 -40 -9 c-55 -11 -77 -11 -70 1 4 6 -5 10
-19 10 -36 0 -32 -16 5 -24 69 -14 177 -3 149 14 -12 7 88 28 165 35 159 13
274 16 306 7 30 -8 40 -7 52 5 8 9 20 12 27 8 9 -6 9 -10 -1 -16 -9 -5 10 -9
50 -9 35 0 61 -3 58 -6 -4 -4 -82 -5 -174 -4 -227 5 -231 5 -288 -4 -43 -7
-47 -9 -30 -19 17 -9 6 -13 -65 -23 -142 -21 -248 -28 -262 -16 -7 5 -40 11
-73 13 -33 2 -65 7 -72 12 -6 4 -38 7 -70 5 l-58 -3 65 -12 65 -12 -82 2 c-46
1 -83 -1 -83 -5 0 -5 -36 -8 -80 -8 -47 0 -80 -4 -80 -10 0 -5 -20 -10 -45
-10 -26 0 -45 -5 -45 -11 0 -8 13 -9 43 -3 23 4 125 7 226 7 152 -1 181 1 162
12 -23 12 -23 12 8 13 17 0 33 -4 36 -9 4 -5 35 -9 71 -9 41 0 63 -4 59 -10
-3 -5 1 -10 9 -10 9 0 16 7 16 15 0 10 10 15 32 15 30 0 31 -1 12 -15 -17 -14
-13 -15 45 -9 48 5 62 4 57 -5 -8 -12 5 -11 189 5 43 4 57 2 49 -5 -6 -7 -93
-13 -235 -15 -123 -2 -253 -7 -289 -10 -58 -4 -56 -3 20 9 l85 13 -80 -2 c-76
-2 -159 -18 -197 -37 -10 -5 -36 -9 -57 -9 -22 0 -43 -4 -46 -10 -8 -14 116
-13 152 1 38 14 648 26 640 12 -4 -6 -35 -14 -69 -18 -129 -17 -339 -28 -314
-17 18 8 18 9 2 15 -23 9 -41 9 -32 0 3 -4 -15 -12 -41 -19 -66 -17 -363 -7
-370 13 -6 14 -55 17 -88 4 -18 -7 -17 -8 7 -14 15 -4 34 -4 42 -1 9 3 22 2
29 -4 6 -5 56 -13 110 -17 54 -4 96 -9 95 -11 -2 -2 -55 -8 -118 -14 -63 -7
-119 -16 -125 -21 -12 -12 61 -12 83 0 9 5 82 12 162 17 80 4 163 8 185 10 22
1 87 3 145 4 69 1 98 4 85 10 -24 10 -33 9 155 14 114 3 121 2 85 -9 -22 -8
-35 -14 -30 -15 6 0 0 -6 -12 -13 -12 -7 -22 -16 -22 -22 0 -5 -9 -12 -21 -15
-12 -3 16 -6 62 -6 l83 -1 -50 12 c-45 11 -31 13 150 15 110 1 205 3 210 5 6
1 40 3 78 3 38 1 67 6 67 12 0 7 -86 10 -262 7 -166 -2 -243 0 -208 5 30 5
127 10 215 12 88 2 176 7 195 10 26 5 30 4 15 -3 -17 -8 -16 -10 13 -10 29 -1
32 2 32 29 0 31 -9 37 -26 21 -9 -10 -221 -18 -230 -9 -2 3 24 8 58 12 35 4
93 12 131 18 l67 12 0 47 c0 37 -4 49 -17 52 -17 4 -17 5 0 6 14 1 17 11 17
61 l0 59 -47 1 c-27 1 -60 1 -76 1 -21 0 -25 3 -15 12 7 9 32 11 75 9 58 -4
63 -3 63 16 0 18 -7 21 -47 25 l-48 3 48 2 c43 2 47 4 47 27 0 24 -3 25 -55
25 -30 0 -55 -4 -55 -10z m-300 -99 c0 -5 8 -12 18 -14 10 -3 6 -5 -10 -6 -16
0 -28 -5 -28 -10 0 -16 -104 -24 -189 -14 -52 6 -87 5 -98 -1 -10 -5 -49 -12
-88 -15 -56 -5 -70 -9 -69 -22 1 -14 -4 -15 -35 -6 -20 5 -54 10 -76 10 l-40
-1 43 11 c23 5 42 15 42 22 0 14 94 29 280 43 163 13 250 13 250 3z"/>
<path d="M14055 9671 c-11 -4 -78 -8 -150 -10 -136 -2 -195 -8 -195 -21 0 -6
-103 -17 -257 -26 -35 -2 -71 -8 -82 -14 -11 -5 -56 -10 -100 -10 -120 0 -98
-18 27 -22 85 -2 306 15 254 21 -7 0 -11 5 -8 10 3 5 108 10 232 10 139 1 223
-2 220 -8 -4 -5 4 -12 16 -14 20 -4 19 -4 -4 -6 -16 0 -28 3 -28 8 0 5 -16 5
-37 1 -21 -5 -90 -7 -153 -5 -69 2 -149 -2 -199 -11 -46 -8 -88 -14 -94 -14
-7 0 -8 -3 -1 -10 6 -6 55 -6 137 1 71 6 136 8 145 6 9 -3 1 -5 -19 -6 -45 -1
-99 -20 -99 -33 0 -7 12 -8 33 -4 17 4 131 11 252 16 121 4 247 13 280 19 33
6 85 15 115 19 42 5 56 12 58 26 3 16 -2 17 -55 12 -62 -5 -127 -13 -181 -22
-18 -3 -30 -9 -27 -15 4 -5 -16 -9 -47 -10 -29 0 -75 -4 -103 -9 -27 -4 -52
-6 -54 -4 -10 10 12 16 65 20 64 5 76 10 54 25 -11 7 -2 9 30 8 25 0 83 4 130
10 47 6 109 11 138 11 48 0 52 2 52 23 0 23 -4 24 -97 30 -125 9 -222 8 -248
-2z"/>
<path d="M14336 9545 c-4 -10 -20 -15 -54 -15 -82 0 -202 -12 -197 -20 8 -13
-209 -47 -355 -55 -124 -8 -160 -12 -168 -19 -16 -16 420 -2 615 19 31 4 54 2
58 -4 3 -6 -2 -12 -12 -13 -10 -1 -25 -2 -33 -4 -8 -1 -32 -2 -52 -3 -21 -1
-38 -5 -38 -11 0 -6 38 -10 93 -11 50 -1 84 -3 74 -6 -33 -9 -6 -23 44 -23 28
0 48 -4 45 -9 -7 -11 14 -20 32 -14 6 3 12 13 12 24 0 14 -7 19 -27 19 l-28 1
30 15 c29 14 30 14 3 9 -15 -3 -30 -1 -33 5 -4 6 6 10 24 10 30 0 31 2 31 43
0 38 -4 45 -27 55 -22 9 -23 11 -6 8 13 -2 26 0 29 5 3 5 -8 9 -24 9 -17 0
-32 -6 -36 -15z"/>
<path d="M13110 9531 c-23 -13 -319 -25 -300 -12 11 8 -1 11 -47 11 -34 0 -65
-4 -68 -10 -4 -6 7 -10 24 -10 17 0 31 -5 31 -11 0 -14 437 -4 454 10 6 5 27
14 46 19 31 9 26 10 -45 11 -44 0 -87 -3 -95 -8z"/>
<path d="M13540 9410 l-35 -7 39 -2 c89 -3 16 -14 -146 -22 -95 -5 -198 -13
-228 -18 -57 -10 53 -7 450 9 102 5 240 9 307 10 68 1 125 5 128 10 8 13 -91
22 -170 17 -39 -3 -122 -7 -185 -10 -92 -5 -104 -4 -60 4 30 5 60 11 65 13 18
8 -129 4 -165 -4z"/>
<path d="M14250 9218 c-20 -6 -138 -8 -287 -6 -186 2 -253 0 -253 -8 0 -7 -9
-14 -20 -17 -11 -3 -20 -9 -20 -14 0 -11 72 -14 86 -2 6 5 67 11 135 13 107 4
112 4 39 -3 -113 -11 -157 -21 -139 -32 9 -5 -23 -9 -82 -9 -90 0 -255 -13
-341 -26 -23 -4 -38 -11 -38 -20 0 -16 -26 -19 -35 -5 -6 11 -75 3 -90 -10
-17 -17 84 -15 290 5 299 29 358 38 385 57 17 12 52 19 117 24 50 3 126 10
169 14 42 5 83 7 91 4 7 -3 43 -2 78 2 55 6 65 10 65 26 0 17 -7 19 -57 18
-32 0 -74 -5 -93 -11z"/>
<path d="M6671 8490 c-33 -5 -61 -42 -42 -55 5 -2 11 4 14 15 4 16 13 19 51
18 44 0 61 -11 34 -21 -7 -2 -10 -8 -6 -11 3 -4 15 1 26 12 23 23 69 19 90 -7
10 -13 14 -13 21 -3 6 11 17 11 44 4 37 -10 77 -6 77 8 0 4 23 8 51 9 29 0 57
5 63 10 11 9 186 7 281 -3 l50 -6 -45 15 c-84 29 -381 21 -406 -11 -15 -19
-27 -18 -42 7 -13 20 -20 21 -91 15 -42 -3 -90 -2 -106 2 -17 4 -45 5 -64 2z"/>
<path d="M13125 7574 c13 -10 11 -12 -14 -17 -16 -3 -35 -12 -42 -20 -8 -8
-46 -16 -86 -20 -40 -3 -81 -11 -92 -16 -11 -6 -36 -11 -57 -11 -22 0 -43 -7
-53 -17 -15 -17 -43 -23 -103 -23 -14 0 -39 -5 -55 -11 l-28 -12 25 -7 c44
-14 116 -10 217 10 54 11 109 20 123 21 18 1 11 5 -23 16 -27 8 -46 17 -43 20
3 3 19 0 37 -6 46 -16 160 -14 203 4 44 19 181 23 419 13 99 -4 167 -3 167 2
0 5 8 7 18 4 13 -5 14 -4 4 4 -8 5 -60 8 -115 7 -103 -3 -106 8 -7 24 3 1 -7
7 -22 15 -19 10 -69 15 -170 16 -79 0 -183 4 -231 8 -68 6 -85 5 -72 -4z"/>
<path d="M14235 7290 l-30 -7 35 -6 c19 -4 45 -9 57 -10 36 -5 39 -17 5 -17
-18 0 -32 -4 -32 -8 0 -5 -26 -13 -57 -19 l-58 -10 43 -8 c65 -12 50 -20 -38
-20 -44 0 -80 2 -80 5 0 3 -24 6 -53 6 -28 1 -72 5 -97 8 -80 11 -342 24 -389
20 -25 -3 -62 -15 -82 -29 -23 -15 -47 -22 -65 -20 -16 2 -68 9 -115 15 -47 7
-101 10 -120 6 -19 -3 -43 -8 -54 -10 -11 -2 -42 -4 -68 -5 -33 -1 -46 -5 -41
-12 5 -8 49 -10 151 -6 110 4 156 2 191 -9 26 -7 59 -14 74 -14 15 0 29 -4 32
-8 9 -14 -10 -32 -30 -28 -10 2 -78 7 -150 11 -109 6 -137 5 -165 -8 -27 -13
-96 -18 -324 -26 -159 -5 -301 -14 -315 -19 -14 -6 -19 -11 -12 -11 20 -1 13
-21 -8 -21 -11 0 -20 -5 -20 -10 0 -13 168 -3 219 12 30 9 273 13 322 5 9 -2
24 -10 33 -20 10 -9 29 -17 44 -17 15 0 51 -3 80 -6 34 -5 52 -3 52 4 0 6 -6
12 -12 15 -7 2 -2 2 12 -1 68 -14 110 -17 189 -13 80 3 84 4 52 15 -32 11 -27
13 75 25 60 7 118 17 129 21 11 5 29 11 40 13 18 4 18 5 -5 16 -22 10 -21 11
18 6 23 -3 42 -1 42 3 0 16 220 21 302 6 21 -3 36 -10 33 -14 -2 -4 19 -12 48
-18 38 -7 54 -7 59 1 6 9 8 9 8 0 0 -9 8 -8 28 3 15 7 48 14 73 14 25 0 67 3
93 6 40 6 47 10 44 27 -3 21 -25 31 -102 45 -22 4 -41 13 -44 21 -3 10 0 11
14 3 11 -5 45 -12 77 -15 l57 -6 0 65 0 64 -67 -1 c-38 -1 -81 -5 -98 -9z"/>
<path d="M13828 6979 c-2 -7 -61 -11 -163 -13 -115 -2 -181 -7 -234 -21 -64
-16 -82 -17 -150 -6 -42 6 -114 10 -161 7 -47 -3 -128 1 -180 8 -63 9 -132 11
-205 6 -60 -4 -103 -7 -95 -8 8 -1 58 -9 110 -16 52 -8 125 -15 162 -15 37 0
94 -5 128 -12 39 -7 85 -9 128 -4 120 14 137 12 137 -10 0 -24 28 -23 140 2
82 19 201 27 260 18 42 -6 45 -11 36 -56 0 -4 -48 -8 -107 -11 -78 -3 -107 -7
-114 -18 -7 -11 -4 -16 10 -18 11 -2 20 -8 20 -13 0 -5 -51 -10 -112 -10 -224
-3 -253 -5 -283 -16 -16 -6 -63 -21 -102 -34 -40 -12 -80 -30 -89 -41 -17 -18
-14 -18 103 -17 65 0 135 -2 155 -6 21 -4 38 -3 42 3 3 6 15 8 27 5 12 -3 24
-1 28 6 5 7 42 12 104 12 53 0 108 4 124 8 15 4 45 4 67 0 30 -5 42 -3 57 12
12 12 30 17 56 15 31 -2 37 -6 35 -22 -6 -29 -30 -38 -107 -44 -60 -4 -70 -8
-67 -22 2 -11 -3 -18 -13 -18 -10 0 -13 5 -9 12 4 6 -4 3 -18 -8 -23 -17 -24
-20 -9 -32 14 -12 14 -13 -3 -7 -11 3 -67 10 -125 16 -58 5 -140 14 -181 19
-41 6 -100 10 -130 10 -30 0 -84 6 -120 14 -75 16 -178 10 -201 -11 -10 -8
-18 -10 -20 -4 -4 10 -37 4 -167 -32 -71 -20 -73 -21 -46 -32 24 -10 26 -12
11 -18 -10 -4 -15 -11 -12 -17 4 -6 -7 -10 -26 -10 -18 0 -37 -7 -45 -17 -13
-17 -14 -17 -8 0 7 19 -3 22 -26 7 -10 -6 -11 -10 -2 -10 6 0 12 -7 12 -15 0
-12 4 -13 19 -6 10 6 20 8 23 6 2 -3 34 4 70 14 57 16 142 27 185 22 7 0 12
-11 10 -23 -2 -21 2 -23 61 -26 43 -2 62 0 57 7 -4 8 27 11 94 11 85 0 101 3
101 16 0 8 4 13 9 10 5 -4 11 -1 13 6 3 7 22 11 47 10 28 -1 40 2 35 9 -4 8 1
9 16 4 14 -4 20 -3 16 3 -3 5 5 12 19 14 13 3 26 1 27 -4 2 -5 17 -4 34 2 23
8 48 7 97 -3 37 -7 67 -10 67 -6 0 5 10 5 23 0 30 -12 172 -22 181 -13 4 3 -8
12 -26 18 -30 10 -25 11 66 18 54 4 119 15 144 25 41 16 44 19 26 29 -14 9
-15 12 -4 13 30 3 136 -3 183 -11 26 -4 47 -3 47 1 0 5 -5 9 -12 9 -9 0 -9 3
-1 11 8 8 42 8 125 0 63 -6 133 -11 156 -11 38 0 42 2 42 24 0 17 -8 28 -27
35 l-28 11 28 -4 c27 -3 28 -2 26 39 l-3 42 -195 12 c-108 7 -229 16 -269 22
-40 5 -98 9 -129 9 -38 0 -53 4 -51 12 8 23 64 28 273 24 162 -3 219 -7 247
-19 21 -9 58 -19 83 -22 l45 -7 0 60 c0 59 -1 61 -30 67 -16 4 -45 3 -62 -1
-18 -4 -37 -6 -43 -5 -5 2 -28 4 -50 6 -134 10 -194 17 -225 25 -48 13 -157
13 -162 -1z"/>
<path d="M12302 6882 c-9 -6 8 -14 53 -25 54 -14 101 -15 283 -10 227 6 263
11 222 33 -21 11 -194 10 -435 -2 -11 -1 -40 2 -65 6 -25 3 -51 3 -58 -2z"/>
<path d="M9873 6787 c-29 -5 -53 -13 -53 -18 0 -5 5 -9 10 -9 6 0 10 -4 10
-10 0 -8 -33 -21 -60 -25 -3 0 -14 -6 -25 -12 -18 -11 -15 -12 21 -13 47 0
104 17 104 32 0 6 6 8 14 5 8 -3 30 -1 48 5 35 11 352 12 372 1 7 -4 8 -2 1 5
-11 12 -115 29 -190 31 -27 1 -84 5 -125 9 -41 4 -99 4 -127 -1z"/>
<path d="M8776 6549 c-18 -59 -15 -130 6 -156 5 -7 7 -17 3 -23 -3 -5 -1 -10
4 -10 6 0 11 -16 11 -35 0 -30 4 -36 28 -41 15 -3 46 -12 70 -20 67 -22 65
-24 57 83 -7 92 -6 97 11 83 13 -12 18 -12 21 -2 3 6 11 12 19 12 8 0 14 5 14
10 0 6 -10 10 -22 10 -47 0 -69 12 -75 41 -7 35 -36 67 -68 75 -14 3 -25 10
-25 14 0 4 -8 10 -19 13 -15 3 -21 -6 -35 -54z"/>
<path d="M11400 6569 c0 -6 -9 -9 -19 -6 -12 3 -22 -1 -25 -10 -9 -23 -7 -26
8 -14 11 9 20 6 43 -13 17 -14 34 -22 38 -18 4 4 5 -4 2 -18 -6 -24 -5 -24 8
-6 8 11 15 15 15 10 0 -6 11 -17 25 -24 17 -9 21 -16 14 -21 -13 -8 39 -39 64
-39 8 0 18 -7 21 -16 4 -9 9 -14 12 -11 8 7 66 -23 89 -47 21 -21 14 -31 -12
-17 -10 5 -33 16 -51 23 -18 7 -35 20 -37 30 -8 24 -55 11 -55 -15 0 -8 3 -7
9 2 7 11 12 10 29 -5 40 -37 57 -49 64 -47 9 3 21 -34 14 -45 -6 -9 215 -122
239 -122 7 0 15 -3 17 -7 2 -5 25 -19 52 -33 28 -14 77 -40 110 -58 34 -19
102 -54 151 -80 50 -25 114 -60 143 -79 29 -18 55 -33 58 -33 9 0 254 -139
299 -170 22 -15 79 -49 128 -75 48 -26 87 -49 87 -52 0 -6 -38 6 -74 23 -16 8
-35 14 -43 14 -8 0 -21 7 -29 15 -16 16 -31 18 -104 15 -108 -3 -129 -5 -136
-12 -4 -5 -23 -8 -43 -9 -20 0 -45 -4 -56 -8 -18 -7 -17 -9 10 -14 63 -12 124
-18 250 -23 207 -8 259 -17 298 -51 12 -10 43 -29 70 -42 26 -12 47 -27 47
-32 0 -6 4 -8 9 -5 4 3 17 -4 27 -17 l19 -22 -22 19 c-15 12 -23 14 -23 7 0
-8 -7 -10 -21 -6 -12 4 -27 8 -33 9 -6 1 -17 5 -23 9 -25 16 -131 28 -283 33
-212 8 -220 8 -220 15 0 4 -16 6 -35 5 -19 -1 -36 2 -38 7 -1 4 -10 5 -19 2
-9 -4 -14 -13 -11 -21 3 -10 0 -12 -10 -8 -8 3 -18 0 -22 -6 -6 -9 -10 -9 -17
1 -7 11 -11 11 -14 2 -4 -9 -33 -11 -112 -6 -89 5 -110 3 -120 -10 -10 -12
-10 -16 3 -21 16 -6 21 -36 5 -36 -5 0 -14 8 -19 18 -9 15 -10 15 -11 1 0 -9
7 -20 16 -23 8 -3 12 -10 9 -16 -3 -5 -4 -10 -1 -10 8 0 27 38 31 62 8 38 17
33 13 -7 l-3 -40 80 -7 c210 -18 257 -19 272 0 8 9 12 12 9 6 -3 -6 6 -9 25
-6 19 3 29 0 29 -8 0 -9 4 -9 13 -2 25 21 100 24 142 7 35 -15 38 -15 26 -1
-9 11 -10 16 -2 16 6 0 14 -6 16 -12 4 -9 44 -14 143 -16 82 -2 161 -9 197
-19 33 -8 76 -17 95 -19 19 -2 49 -5 67 -7 18 -2 52 -20 78 -42 65 -53 162
-121 215 -150 58 -32 93 -62 86 -74 -11 -17 -186 -2 -261 22 -69 22 -69 22
-32 25 25 2 45 -2 56 -12 13 -12 39 -16 96 -16 100 0 94 8 -8 11 -42 2 -77 6
-77 10 0 4 -15 14 -34 23 -40 19 -100 12 -92 -11 5 -12 -9 -14 -82 -11 -54 2
-85 7 -82 13 3 6 11 9 18 9 6 -1 12 2 12 7 0 5 6 6 14 3 7 -3 16 2 19 10 4 9
15 16 26 16 11 0 23 5 26 10 3 6 18 10 33 10 15 0 35 7 45 14 17 13 24 45 10
47 -5 0 -19 2 -33 4 -14 2 -70 4 -125 5 -113 2 -179 -14 -182 -43 -1 -13 4
-17 14 -13 12 5 14 1 10 -14 -3 -11 0 -20 6 -20 8 0 8 -3 0 -11 -17 -17 -84
-23 -93 -8 -5 7 -16 14 -25 15 -9 1 -14 0 -11 -3 14 -15 -20 -33 -63 -34 l-46
-1 32 -11 c17 -7 35 -15 39 -19 13 -13 77 -9 93 6 22 19 53 24 58 9 3 -9 -6
-13 -27 -13 -21 0 -29 -4 -24 -12 4 -6 3 -9 -2 -6 -5 3 -15 0 -22 -8 -11 -12
-6 -13 33 -9 27 3 45 0 45 -6 0 -6 5 -7 10 -4 6 3 10 1 10 -4 0 -6 14 -11 30
-11 17 0 30 3 30 8 0 13 52 31 69 23 9 -4 45 -8 81 -9 49 -2 61 1 50 9 -11 8
5 9 60 4 79 -7 99 -13 81 -25 -7 -4 36 -10 96 -13 59 -4 124 -9 143 -12 34 -5
35 -4 8 7 -16 7 -28 18 -28 25 0 19 3 18 77 -33 38 -26 72 -47 78 -48 22 -4
55 -27 50 -35 -3 -5 2 -11 10 -15 8 -3 15 -11 15 -18 0 -9 -3 -8 -10 2 -5 8
-10 12 -10 7 0 -4 -23 4 -52 19 -58 30 -102 28 -166 -6 -20 -11 -46 -20 -57
-20 -11 0 -29 -7 -39 -15 -11 -8 -37 -15 -57 -15 -21 0 -41 -4 -44 -10 -3 -5
-17 -10 -30 -10 -13 0 -27 -4 -30 -10 -3 -5 1 -10 9 -10 27 0 18 -29 -22 -72
-30 -31 -47 -41 -78 -44 -61 -6 -104 -16 -104 -24 0 -4 -18 -10 -40 -14 -22
-3 -40 -10 -40 -15 0 -5 10 -7 23 -5 l22 5 -22 -10 c-13 -6 -23 -15 -23 -20 0
-6 -6 -8 -14 -5 -11 4 -13 0 -9 -16 7 -25 55 -52 78 -43 10 3 20 2 24 -3 8
-12 58 -34 76 -34 8 0 11 7 8 21 -5 19 -3 20 13 11 14 -8 21 -6 29 5 10 13 15
12 37 -8 18 -17 23 -30 18 -44 -4 -10 -2 -25 4 -31 13 -14 29 -8 20 7 -4 6 14
9 47 7 34 -2 54 -8 57 -17 3 -8 0 -11 -6 -8 -5 4 -16 -1 -23 -10 -9 -10 -9
-14 -2 -10 7 4 36 10 65 13 29 3 56 11 59 16 4 7 9 7 13 0 10 -17 166 -36 166
-20 0 4 7 8 16 8 9 0 12 -5 8 -12 -5 -9 -2 -9 9 1 11 9 17 10 17 2 0 -6 10
-11 23 -10 21 0 21 1 2 9 -17 7 -16 9 10 10 17 2 34 2 38 1 5 -1 5 4 2 10 -4
6 -20 9 -36 5 -22 -4 -29 -2 -29 10 0 12 8 14 38 8 20 -4 48 -11 60 -15 13 -5
28 -7 33 -3 5 3 9 2 9 -3 0 -4 17 -9 38 -10 61 -2 81 -7 79 -18 -1 -5 4 -10
11 -9 6 1 33 2 60 3 44 2 46 3 28 16 -11 8 -30 15 -42 15 -13 0 -25 4 -28 9
-3 4 8 7 25 5 17 -2 38 0 47 5 13 7 11 9 -8 9 -57 1 -80 5 -80 13 0 5 9 9 21
9 11 0 30 5 42 12 28 15 47 19 47 8 0 -4 15 -17 33 -29 l32 -21 -25 -7 -25 -7
30 -6 c19 -3 31 -12 33 -25 2 -11 9 -24 14 -30 8 -7 8 -6 3 4 -6 11 -3 13 13
9 12 -4 20 -2 16 3 -3 5 0 9 5 9 6 0 11 16 11 35 0 21 -5 35 -12 35 -10 0 -10
2 0 9 18 11 -10 33 -40 31 -40 -4 -48 -1 -48 18 0 9 3 13 8 7 4 -6 21 -12 37
-14 17 -1 36 -8 43 -13 9 -8 12 9 12 80 l0 91 -101 73 c-56 40 -122 87 -146
105 -101 71 -58 56 60 -21 32 -20 61 -44 63 -51 3 -8 11 -12 18 -9 7 3 24 -6
39 -20 15 -14 27 -22 27 -19 0 3 9 -4 20 -17 l20 -23 0 125 0 125 -47 33 c-27
18 -79 57 -118 85 -38 28 -96 66 -128 84 -32 19 -61 40 -64 47 -3 8 -11 14
-19 14 -15 0 -103 60 -88 60 5 0 -5 7 -22 16 -18 8 -41 24 -53 35 -11 11 -21
16 -21 12 0 -4 -7 0 -14 10 -8 10 -18 18 -23 19 -4 0 -38 20 -74 44 -37 24
-70 44 -74 44 -3 0 -21 11 -39 25 -18 14 -36 25 -40 25 -3 0 -41 24 -84 53
-42 29 -93 59 -112 67 -19 7 -78 42 -131 76 -53 34 -121 75 -150 91 -30 15
-55 31 -57 36 -2 4 -10 7 -18 7 -8 0 -14 5 -14 10 0 6 -7 10 -16 10 -9 0 -12
5 -8 12 5 8 2 9 -9 5 -10 -3 -17 -2 -17 3 0 6 -5 10 -11 10 -6 0 -29 13 -52
28 -23 16 -74 46 -113 67 -40 20 -84 48 -99 61 -15 13 -44 28 -64 35 -20 6
-41 16 -48 21 -7 5 -16 7 -21 4 -6 -3 -15 1 -22 9 -7 8 -16 12 -21 10 -4 -3
-11 1 -16 8 -9 17 -384 203 -494 246 -41 16 -110 45 -153 65 -43 20 -80 36
-84 36 -3 0 -25 9 -49 21 -24 12 -54 22 -67 23 -13 0 -22 4 -19 9 7 12 -12 8
-25 -5 -9 -9 -12 -9 -12 -1 0 7 -12 11 -27 9 -16 -1 -34 2 -40 7 -9 6 -13 6
-13 -1 0 -13 -43 -6 -81 14 -20 10 -29 11 -29 3z"/>
<path d="M11016 6545 c-5 -14 -1 -16 37 -19 6 -1 17 -6 22 -12 14 -16 45 -25
45 -14 0 6 -7 10 -15 10 -8 0 -15 7 -15 15 0 17 11 11 55 -32 24 -25 41 -31
29 -10 -9 15 26 -12 42 -32 6 -8 20 -12 33 -8 15 4 21 1 21 -11 0 -12 2 -14 8
-5 6 10 17 7 42 -12 19 -14 40 -23 47 -21 7 3 13 0 13 -7 0 -8 3 -8 9 2 6 9
11 10 15 3 4 -6 14 -8 23 -5 12 5 14 3 8 -8 -6 -11 -5 -12 5 -2 11 10 16 9 24
-2 13 -17 57 -24 62 -10 4 10 -74 52 -88 48 -4 -2 -8 1 -8 7 0 6 -10 10 -21
10 -12 0 -36 8 -53 19 -17 10 -41 18 -53 16 -12 -1 -20 1 -18 5 2 3 -22 14
-53 24 -31 10 -75 26 -98 37 -22 11 -47 17 -56 14 -9 -4 -19 -2 -23 4 -9 16
-32 13 -39 -4z"/>
<path d="M13745 6532 c-11 -1 -29 -7 -40 -12 -11 -4 -49 -14 -85 -21 -36 -7
-78 -21 -95 -30 -16 -10 -48 -21 -70 -25 -22 -4 -60 -15 -85 -24 -25 -10 -69
-21 -98 -24 -29 -3 -67 -12 -85 -19 -69 -31 -127 -48 -137 -42 -14 8 -60 -21
-59 -38 0 -9 2 -9 6 1 7 18 24 15 21 -5 -5 -28 46 -45 160 -54 58 -4 117 -12
131 -18 54 -20 181 -35 193 -23 9 9 7 12 -10 12 -15 0 -22 6 -22 20 0 16 7 20
38 21 126 4 156 7 160 18 2 6 19 11 38 11 19 0 34 4 34 9 0 27 329 32 382 6
30 -14 100 -5 106 14 2 6 19 11 37 11 18 0 56 7 84 17 l51 16 0 57 0 57 -52
12 c-29 7 -100 16 -158 21 -58 5 -141 14 -185 19 -90 11 -230 19 -260 13z
m106 -150 c-36 -31 -125 -65 -169 -66 -15 -1 -32 -4 -38 -8 -5 -4 -35 -10 -65
-14 -30 -3 -61 -12 -69 -18 -27 -22 -66 -34 -81 -26 -8 4 -45 13 -83 19 -70
12 -126 34 -126 50 0 4 30 9 68 10 61 1 69 4 92 31 24 29 80 43 80 20 0 -5 -4
-10 -10 -10 -5 0 -10 -5 -10 -11 0 -14 173 -7 192 8 17 13 61 24 117 29 24 2
45 5 47 6 1 2 22 4 46 5 l43 3 -34 -28z"/>
<path d="M10345 6315 c-16 -8 -52 -14 -80 -15 -84 0 -207 -42 -187 -62 6 -6 8
-16 5 -23 -3 -10 2 -12 16 -8 12 3 21 9 21 14 0 8 78 4 138 -7 28 -6 31 -4 25
11 -5 14 -3 16 8 10 17 -11 70 -7 83 6 6 5 15 4 23 -2 9 -8 13 -8 13 0 0 7 20
11 52 11 49 0 51 1 34 19 -9 10 -38 25 -63 32 -37 10 -43 14 -27 20 16 7 15 8
-6 7 -14 0 -38 -6 -55 -13z"/>
<path d="M12281 6321 c-21 -5 -11 -12 69 -49 52 -23 96 -38 99 -34 3 5 24 12
46 16 22 4 50 14 63 22 19 13 22 13 22 0 0 -12 5 -13 31 -4 24 8 43 7 89 -7
32 -10 70 -15 84 -13 14 3 27 2 28 -3 2 -4 23 -9 48 -11 25 -2 55 -10 67 -16
12 -7 31 -12 42 -12 12 0 21 -4 21 -8 0 -5 37 -13 83 -19 45 -6 93 -13 107
-17 14 -3 57 -9 95 -12 94 -9 75 8 -35 31 -85 17 -158 41 -237 76 -93 42 -169
52 -398 54 -121 1 -238 5 -260 8 -22 3 -51 2 -64 -2z"/>
<path d="M13850 6269 c-23 -10 -24 -11 -7 -23 22 -17 22 -26 -2 -26 -11 0 -27
-10 -35 -21 -12 -17 -22 -20 -55 -17 -23 2 -41 0 -41 -4 0 -5 -7 -8 -16 -8
-10 0 -14 -6 -11 -15 4 -10 -7 -18 -41 -29 l-47 -14 45 -1 c25 -1 52 -6 60
-11 21 -14 -45 -13 -110 1 -28 6 -54 9 -57 6 -8 -9 42 -38 73 -42 81 -13 94
-17 94 -24 0 -12 -83 -2 -165 20 -104 28 -195 36 -209 17 -6 -8 -18 -17 -26
-21 -10 -4 -8 -6 8 -6 12 -1 22 5 22 12 0 9 2 9 9 -1 5 -9 54 -19 142 -28 149
-16 191 -17 264 -7 42 5 45 8 23 12 -47 10 -17 34 54 42 87 11 130 19 148 30
13 7 13 9 0 10 -8 0 -4 4 10 8 15 4 28 3 33 -3 5 -7 10 -6 17 4 7 11 12 12 18
4 9 -14 42 -3 61 20 12 14 12 16 -3 10 -12 -5 -16 0 -16 16 0 16 4 20 15 16 8
-3 15 -2 15 3 0 15 -67 30 -81 17 -9 -8 -11 -7 -6 7 5 13 1 17 -21 17 -15 0
-44 9 -65 20 -41 22 -60 24 -97 9z"/>
<path d="M9397 6228 c-7 -4 -19 -5 -29 -2 -9 2 -19 0 -22 -5 -4 -5 -31 -15
-61 -22 -42 -9 -55 -16 -55 -30 0 -12 10 -21 28 -24 15 -3 41 -10 59 -14 20
-6 35 -5 42 2 6 6 11 7 11 2 0 -5 7 0 15 11 15 19 15 19 8 -1 -6 -20 -6 -20
15 -1 12 11 22 15 22 10 0 -5 9 2 19 15 10 14 29 26 42 28 23 3 49 20 49 32 0
9 -129 8 -143 -1z"/>
<path d="M14368 6219 c-10 -5 -18 -17 -18 -24 0 -8 -9 -15 -20 -15 -11 0 -20
-4 -20 -9 0 -5 -13 -14 -29 -21 -19 -7 -28 -17 -24 -26 3 -8 -6 -18 -24 -26
-15 -7 -31 -17 -34 -21 -4 -5 -10 -4 -13 2 -5 8 -17 3 -38 -14 -23 -20 -40
-25 -83 -25 -43 0 -56 -4 -65 -19 -15 -29 -13 -31 20 -31 20 0 33 -6 38 -17 9
-23 37 -30 28 -8 -4 11 -2 14 6 9 16 -10 165 -34 215 -34 66 0 93 14 93 49 0
16 -6 32 -12 34 -10 4 -10 6 0 6 9 1 12 28 12 101 0 55 -3 100 -7 100 -5 0
-16 -5 -25 -11z"/>
<path d="M12743 6077 c2 -6 43 -32 93 -59 88 -47 126 -62 88 -33 -22 17 -12
20 17 4 24 -13 109 -21 109 -11 0 4 10 8 23 9 77 6 171 42 153 59 -25 23 -104
31 -181 19 -53 -8 -75 -8 -76 -1 0 6 -5 0 -11 -14 -11 -25 -11 -25 -15 -2 -3
12 -10 22 -16 23 -7 0 -20 2 -29 4 -10 2 -18 -1 -18 -7 0 -7 -5 -7 -13 1 -8 6
-16 8 -20 5 -9 -9 -57 -12 -51 -3 3 5 2 9 -3 10 -4 0 -18 2 -31 3 -12 2 -21
-2 -19 -7z"/>
<path d="M13282 5976 c-24 -13 -41 -38 -35 -52 4 -12 30 -16 148 -28 70 -7
187 -26 199 -33 7 -4 8 -3 1 5 -5 5 -19 13 -30 16 -20 5 36 1 135 -9 40 -5 51
-3 40 4 -8 6 -26 11 -40 12 -14 0 4 7 40 15 71 16 125 50 60 38 -19 -3 -41 -7
-47 -10 -7 -2 -13 3 -13 11 0 9 -10 15 -24 15 -14 0 -37 5 -53 11 -34 14 -357
18 -381 5z"/>
<path d="M14015 5908 c-38 -5 -83 -11 -100 -12 -173 -17 -195 -32 -55 -38 63
-2 77 -6 85 -23 6 -11 17 -20 25 -20 8 0 21 -5 27 -12 7 -6 27 -10 45 -9 28 2
33 -1 34 -19 l2 -22 -92 25 c-88 23 -96 24 -265 14 -147 -8 -176 -12 -187 -27
-14 -18 -8 -19 -181 5 -126 18 -130 11 -23 -48 52 -30 163 -96 245 -148 83
-52 159 -99 171 -103 11 -5 33 -20 50 -33 44 -36 146 -95 114 -66 -14 13 -26
28 -27 33 -1 6 -13 12 -25 14 -14 2 1 9 42 17 59 13 203 12 265 0 11 -3 30 -5
43 -5 13 -1 20 -5 17 -11 -3 -6 5 -14 19 -20 14 -5 26 -14 26 -20 0 -5 8 -10
18 -10 9 0 26 -7 36 -15 11 -8 32 -15 48 -15 l28 0 0 220 0 220 -24 -10 c-13
-4 -82 -12 -153 -16 -116 -6 -131 -5 -136 10 -7 17 25 36 59 36 8 0 14 4 14 8
0 4 10 9 22 9 13 1 24 7 26 13 2 5 8 10 13 10 6 0 7 -6 4 -12 -4 -7 1 -4 9 6
9 11 16 22 16 25 0 4 21 4 48 2 l47 -3 -27 21 c-14 12 -41 23 -60 26 -80 10
-178 12 -243 3z"/>
<path d="M14143 5333 c-22 -3 -40 -14 -54 -34 -11 -16 -25 -27 -30 -24 -5 4
-9 2 -9 -4 0 -6 11 -13 25 -17 14 -3 25 -10 25 -14 0 -5 12 -10 28 -12 15 -2
27 -9 27 -16 0 -7 20 -28 44 -47 44 -35 67 -38 98 -13 8 6 32 7 58 4 l45 -7 0
64 c0 63 0 63 -35 80 -20 9 -45 17 -56 17 -11 0 -28 4 -37 9 -23 12 -90 19
-129 14z"/>
<path d="M12253 5254 c-26 -27 -34 -30 -30 -13 3 16 -61 19 -67 3 -3 -7 -17
-14 -33 -17 -18 -2 -11 -5 20 -6 31 -1 47 3 47 12 1 8 4 7 13 -3 7 -8 26 -17
42 -19 17 -1 38 -7 48 -12 21 -12 22 -5 2 15 -8 8 -11 17 -6 20 5 4 17 -1 25
-10 12 -11 16 -12 16 -2 0 10 2 10 8 0 5 -7 22 -10 40 -8 18 2 35 -1 38 -6 3
-5 14 -6 24 -3 10 3 21 1 25 -5 4 -6 13 -9 19 -7 7 3 32 1 57 -3 24 -5 72 -11
106 -13 34 -3 67 -8 73 -12 6 -4 38 -4 71 0 44 5 58 10 50 18 -12 12 -13 12
-121 26 -41 6 -91 15 -110 21 -19 6 -75 15 -125 21 -49 5 -117 13 -149 18 -55
8 -62 6 -83 -15z"/>
<path d="M11434 5129 c8 -11 24 -27 35 -35 24 -17 28 -36 6 -28 -8 4 -12 10
-9 15 3 6 -6 8 -20 5 -14 -3 -28 -1 -31 4 -7 11 -67 41 -72 36 -8 -8 102 -71
137 -78 8 -2 18 -7 22 -13 7 -10 14 -11 93 -19 22 -2 40 -5 40 -6 0 -5 50 -11
88 -10 45 1 65 -8 46 -22 -10 -6 -6 -7 11 -3 14 4 32 14 40 22 13 14 13 14 -7
4 -17 -9 -27 -8 -43 1 -11 7 -20 17 -20 22 0 4 -11 6 -25 3 -14 -2 -23 -2 -21
1 3 3 -2 11 -12 18 -15 12 -15 15 -2 24 19 13 31 13 28 0 -2 -6 9 -18 24 -27
25 -16 31 -16 70 -2 23 9 44 22 46 30 2 8 0 10 -5 4 -4 -6 -25 -16 -47 -24
-32 -11 -40 -11 -47 0 -4 7 -5 17 -2 23 3 5 1 6 -5 2 -7 -4 -12 -1 -12 8 0 12
-5 13 -30 4 -17 -5 -39 -8 -50 -5 -14 4 -20 0 -20 -11 0 -13 -3 -12 -15 4 -8
10 -15 15 -15 10 0 -6 -15 5 -34 23 -24 24 -45 34 -75 37 -28 2 -40 0 -35 -7
3 -6 18 -8 33 -5 25 5 25 5 4 -6 -18 -8 -28 -7 -47 6 -34 22 -40 20 -22 -5z"/>
<path d="M12591 4789 c-14 -5 -30 -8 -38 -5 -7 3 -24 -1 -39 -9 l-27 -14 34
-20 c19 -12 40 -19 47 -16 8 3 20 5 28 5 9 0 12 5 8 12 -5 7 -3 8 6 3 7 -4 15
-3 19 3 12 20 75 16 126 -8 28 -12 52 -22 53 -21 2 1 9 -4 15 -13 15 -19 87
-48 87 -35 0 5 8 9 17 7 12 -2 18 4 19 20 1 19 -4 22 -33 22 -20 0 -32 -4 -28
-10 11 -17 -5 -11 -39 15 -18 14 -36 22 -40 18 -4 -4 -11 -1 -16 6 -12 20 -99
51 -140 50 -19 0 -46 -5 -59 -10z"/>
<path d="M13015 4470 c7 -11 -18 -40 -34 -40 -6 0 -8 -7 -5 -15 4 -8 1 -15 -5
-15 -6 0 -11 -6 -11 -14 0 -20 -28 -29 -87 -26 -32 1 -53 -3 -53 -9 0 -6 9
-11 20 -11 22 0 28 -25 8 -33 -7 -3 0 -6 15 -6 38 -1 24 -21 -14 -21 -18 0
-28 4 -24 10 3 6 -3 10 -14 10 -32 0 -50 -11 -44 -26 7 -18 -23 -29 -41 -15
-10 8 -16 9 -21 1 -3 -5 0 -10 8 -10 8 0 22 -10 33 -21 21 -23 222 -159 236
-159 4 0 8 6 8 14 0 8 8 13 18 12 10 0 16 5 14 14 -1 10 3 9 14 -5 l16 -20 -4
20 c-2 15 3 21 21 23 16 3 21 0 16 -9 -5 -8 -4 -10 3 -5 7 4 36 7 64 8 40 0
48 3 33 9 -15 7 -12 8 13 4 18 -2 31 -1 28 4 -3 5 15 6 41 3 34 -4 44 -2 39 7
-6 8 -1 10 16 6 154 -36 187 -39 209 -19 20 18 63 28 53 12 -7 -11 33 -25 79
-26 25 -1 36 2 31 9 -4 8 -1 8 13 0 15 -7 23 -7 32 2 10 9 16 8 27 -8 8 -11
17 -19 19 -17 13 7 18 0 6 -7 -20 -13 57 -5 93 9 34 13 46 13 46 0 0 -5 -6 -9
-12 -7 -8 1 -12 -6 -10 -17 2 -10 -2 -23 -10 -27 -11 -7 -11 -9 0 -9 7 0 11
-4 8 -8 -3 -5 -36 -7 -73 -5 -76 5 -233 -14 -233 -28 0 -5 -5 -9 -11 -9 -6 0
-23 -8 -37 -18 -15 -10 -37 -17 -49 -16 -13 1 -23 -3 -23 -8 0 -5 -10 -8 -22
-6 -13 2 -30 -4 -38 -12 -10 -10 -32 -16 -62 -15 -36 0 -51 -5 -62 -20 -8 -11
-12 -23 -10 -27 3 -5 -1 -8 -8 -8 -7 -1 5 -16 26 -34 34 -29 43 -33 65 -24 14
5 44 12 66 15 22 3 47 14 56 24 17 20 45 27 34 9 -4 -6 2 -7 18 -1 17 7 30 6
43 -3 11 -7 35 -13 55 -13 19 0 40 -3 47 -6 6 -4 13 -3 17 3 12 20 23 9 23
-22 l0 -33 -64 0 c-35 0 -64 -3 -64 -7 0 -4 -9 -10 -21 -13 -11 -4 -19 -9 -16
-11 2 -3 -9 -19 -24 -35 -16 -17 -29 -34 -29 -38 0 -4 27 -24 59 -45 33 -21
61 -41 63 -45 2 -3 31 -25 64 -48 58 -39 62 -40 79 -25 17 16 17 16 12 0 -9
-24 0 -23 13 2 12 23 4 64 -11 55 -12 -8 -11 2 2 26 13 25 29 16 29 -17 0 -13
4 -24 8 -24 5 0 7 13 4 29 -4 28 -3 29 47 29 44 0 50 -2 39 -15 -6 -8 -20 -12
-30 -10 -14 4 -18 -1 -18 -21 0 -15 -8 -41 -18 -57 -22 -36 -18 -53 15 -66 27
-10 53 7 53 36 0 12 4 14 19 5 11 -5 28 -7 38 -4 13 4 11 0 -7 -15 -14 -11
-29 -21 -34 -21 -5 0 -3 -7 4 -15 10 -12 9 -16 -2 -20 -19 -7 -41 -3 -50 10
-5 6 -8 6 -8 -2 0 -12 51 -53 66 -53 4 0 15 -7 24 -15 10 -9 24 -13 33 -9 14
5 15 10 5 27 -16 31 -18 149 -2 143 7 -3 15 2 18 10 9 23 7 27 -9 21 -8 -4
-17 -2 -20 3 -9 14 29 12 43 -2 7 -7 12 -20 12 -29 0 -16 4 -17 31 -7 19 7 28
15 25 24 -7 17 20 19 27 2 4 -10 8 -9 16 2 6 8 11 13 12 10 9 -45 9 -101 0
-95 -6 3 -8 17 -5 31 5 19 2 24 -12 24 -11 0 -15 -4 -9 -8 6 -4 11 -19 12 -34
0 -19 -5 -28 -20 -32 -15 -4 -18 -8 -9 -18 8 -10 6 -19 -7 -37 -18 -23 -19
-23 -42 -7 -27 19 -39 20 -39 5 0 -5 4 -8 9 -4 5 3 12 1 15 -4 3 -5 -8 -14
-24 -21 -16 -7 -27 -17 -24 -22 3 -5 8 -7 10 -5 3 2 21 -12 42 -32 48 -46 85
-77 110 -90 26 -14 35 -14 26 0 -4 8 0 7 15 -1 13 -6 21 -19 19 -29 -2 -10 12
-30 32 -47 35 -30 127 -94 136 -94 10 0 3 117 -8 129 -10 11 -10 13 0 7 9 -6
12 24 12 133 0 102 -3 141 -12 144 -10 4 -10 6 0 6 9 1 12 37 12 147 0 141 -1
146 -21 151 -21 6 -21 7 -4 19 15 11 16 16 5 29 -10 13 -9 15 6 15 15 0 16 2
5 9 -9 6 -21 5 -32 -2 -13 -8 -21 -7 -33 2 -25 21 -19 28 24 35 22 3 40 10 40
15 0 5 -9 7 -20 4 -16 -4 -19 -2 -14 12 5 12 2 16 -12 13 -11 -2 -24 -9 -29
-16 -8 -10 -19 -11 -45 -4 l-35 10 38 1 c20 1 37 6 37 12 0 6 -8 8 -17 5 -10
-3 -30 1 -45 8 -23 12 -29 12 -39 0 -10 -12 -10 -14 0 -12 7 2 15 -7 17 -18 3
-19 -1 -22 -30 -22 -26 0 -35 5 -39 20 -5 17 -3 17 11 6 12 -9 12 -6 -2 10
-11 12 -15 22 -11 22 5 0 0 6 -10 14 -11 8 -26 11 -34 8 -11 -4 -13 -1 -8 12
4 10 7 19 7 21 0 2 9 1 20 -2 11 -3 20 0 20 6 0 6 7 11 15 11 8 0 15 -5 15
-11 0 -6 8 -8 19 -4 11 3 28 2 38 -3 10 -5 32 -16 48 -23 17 -7 37 -19 46 -26
12 -10 21 -10 42 0 l26 12 -1 163 0 162 -38 0 c-21 0 -41 -6 -43 -12 -5 -12
-11 16 -8 35 2 12 -13 8 -37 -9 -13 -9 -32 -14 -43 -11 -10 3 -22 1 -25 -5 -3
-5 -12 -7 -20 -4 -8 3 -14 2 -14 -3 0 -5 -27 -7 -60 -5 -49 3 -58 1 -54 -11 4
-8 1 -15 -5 -15 -6 0 -11 7 -11 16 0 8 -4 12 -10 9 -5 -3 -10 -15 -10 -26 0
-10 -7 -19 -15 -19 -8 0 -15 3 -15 8 0 4 -47 6 -105 4 -58 -2 -105 -7 -105
-13 0 -5 7 -9 16 -9 8 0 12 -4 9 -10 -6 -10 -40 -9 -50 2 -4 3 -19 2 -35 -2
-16 -4 -31 -6 -34 -2 -3 3 -6 -2 -6 -11 0 -10 -5 -14 -15 -11 -8 3 -13 11 -12
17 1 7 -20 11 -57 11 -44 1 -60 5 -63 16 -3 9 -1 11 4 4 5 -7 16 -6 33 3 14 7
21 13 15 13 -5 1 -32 2 -58 4 -45 4 -47 3 -33 -13 15 -16 14 -17 -17 -13 -17
2 -39 11 -49 19 -11 10 -18 11 -23 4 -3 -6 -3 -11 2 -11 4 0 1 -4 -7 -10 -8
-5 -17 -6 -20 -2 -9 13 -58 31 -76 28 -11 -2 -13 -1 -6 1 10 4 11 8 1 19 -7 9
-8 14 -3 13 5 -1 16 -1 24 0 13 1 13 3 1 10 -8 5 -19 7 -25 5 -6 -2 -17 5 -24
16 -15 24 -6 25 43 5 l37 -16 44 44 c48 49 51 54 29 54 -8 0 -12 -4 -9 -9 3
-4 -2 -8 -10 -8 -9 0 -16 4 -16 8 0 11 -65 39 -110 47 -19 4 -60 19 -90 33
-62 29 -155 39 -146 16 3 -8 1 -14 -4 -14 -6 0 -10 7 -10 15 0 8 -5 15 -11 15
-5 0 -7 -5 -4 -10z"/>
</g>
</svg>
